<svg width="156" height="56" viewBox="0 0 156 56" fill="none" xmlns="http://www.w3.org/2000/svg">
<path d="M0 10C0 4.47715 4.47715 0 10 0H146C151.523 0 156 4.47715 156 10V46C156 51.5229 151.523 56 146 56H10C4.47716 56 0 51.5228 0 46V10Z" fill="#212121"/>
<g clip-path="url(#clip0_166_6952)">
<path d="M22.734 16C17.804 16 16 17.803 16 22.733V33.268C16 38.198 17.803 40 22.734 40H33.263C38.193 40 40 38.197 40 33.268V22.733C40 17.803 38.197 16 33.266 16H22.734ZM24 20H24.565C24.5663 20.9106 24.9286 21.7836 25.5725 22.4275C26.2164 23.0714 27.0894 23.4337 28 23.435C28.9106 23.4337 29.7836 23.0714 30.4275 22.4275C31.0714 21.7836 31.4337 20.9106 31.435 20H32C32 22.206 30.206 24 28 24C25.794 24 24 22.206 24 20ZM30.468 28H30.988L31.701 30.16L32.397 28.002H33.057L31.965 31.142H31.433L30.719 29.079L30.005 31.142H29.477L28.382 28.002H29.06L29.754 30.16L30.468 28ZM36.704 28H37.333V31.138H36.704V28ZM18.666 28H19.304V29.267H20.743V28H21.38V31.142H20.743V29.866H19.303V31.142H18.666V28ZM24.334 28H24.971V29.772C24.971 30.672 24.475 31.189 23.611 31.189C22.755 31.189 22.264 30.682 22.264 29.799V28.002H22.9V29.777C22.9 30.301 23.155 30.582 23.619 30.582C24.079 30.582 24.333 30.309 24.333 29.798L24.334 28ZM26.678 28H27.241L28.619 31.14H27.951L27.669 30.486H26.23L25.944 31.14H25.293L26.678 28ZM33.571 28.002H35.883V28.574H34.2V29.217H35.36V29.79H34.2V30.567H35.944V31.14H33.57L33.571 28.002ZM26.948 28.795L26.468 29.919H27.432L26.948 28.795Z" fill="#C91C2E"/>
</g>
<path d="M48.8807 23.5V16.2273H53.2699V17.0085H49.7614V19.4659H53.0426V20.2472H49.7614V22.7188H53.3267V23.5H48.8807ZM55.2834 16.2273L57.1584 19.2528H57.2152L59.0902 16.2273H60.1271L57.8402 19.8636L60.1271 23.5H59.0902L57.2152 20.5312H57.1584L55.2834 23.5H54.2464L56.5902 19.8636L54.2464 16.2273H55.2834ZM61.2733 23.5V16.2273H63.7306C64.3012 16.2273 64.7676 16.3303 65.1298 16.5362C65.4944 16.7398 65.7643 17.0156 65.9395 17.3636C66.1146 17.7116 66.2022 18.0999 66.2022 18.5284C66.2022 18.9569 66.1146 19.3464 65.9395 19.6967C65.7666 20.0471 65.4991 20.3265 65.1369 20.5348C64.7747 20.7408 64.3107 20.8438 63.7449 20.8438H61.9835V20.0625H63.7164C64.1071 20.0625 64.4208 19.995 64.6575 19.8601C64.8942 19.7251 65.0659 19.5429 65.1724 19.3132C65.2813 19.0812 65.3358 18.8196 65.3358 18.5284C65.3358 18.2372 65.2813 17.9768 65.1724 17.7472C65.0659 17.5175 64.8931 17.3376 64.6539 17.2074C64.4148 17.0748 64.0976 17.0085 63.7022 17.0085H62.1539V23.5H61.2733ZM67.6209 23.5V16.2273H68.5016V22.7188H71.8823V23.5H67.6209ZM79.0991 19.8636C79.0991 20.6307 78.9606 21.2936 78.6836 21.8523C78.4066 22.411 78.0266 22.8419 77.5437 23.1449C77.0607 23.4479 76.5091 23.5994 75.8888 23.5994C75.2686 23.5994 74.717 23.4479 74.234 23.1449C73.7511 22.8419 73.3711 22.411 73.0941 21.8523C72.8171 21.2936 72.6786 20.6307 72.6786 19.8636C72.6786 19.0966 72.8171 18.4337 73.0941 17.875C73.3711 17.3163 73.7511 16.8854 74.234 16.5824C74.717 16.2794 75.2686 16.1278 75.8888 16.1278C76.5091 16.1278 77.0607 16.2794 77.5437 16.5824C78.0266 16.8854 78.4066 17.3163 78.6836 17.875C78.9606 18.4337 79.0991 19.0966 79.0991 19.8636ZM78.2468 19.8636C78.2468 19.2339 78.1415 18.7024 77.9308 18.2692C77.7224 17.8359 77.4395 17.508 77.082 17.2855C76.7269 17.063 76.3292 16.9517 75.8888 16.9517C75.4485 16.9517 75.0496 17.063 74.6921 17.2855C74.337 17.508 74.0541 17.8359 73.8434 18.2692C73.6351 18.7024 73.5309 19.2339 73.5309 19.8636C73.5309 20.4934 73.6351 21.0249 73.8434 21.4581C74.0541 21.8913 74.337 22.2192 74.6921 22.4418C75.0496 22.6643 75.4485 22.7756 75.8888 22.7756C76.3292 22.7756 76.7269 22.6643 77.082 22.4418C77.4395 22.2192 77.7224 21.8913 77.9308 21.4581C78.1415 21.0249 78.2468 20.4934 78.2468 19.8636ZM80.5799 23.5V16.2273H83.0373C83.6055 16.2273 84.0719 16.3243 84.4364 16.5185C84.801 16.7102 85.0709 16.9742 85.2461 17.3104C85.4213 17.6465 85.5089 18.0289 85.5089 18.4574C85.5089 18.8859 85.4213 19.2659 85.2461 19.5973C85.0709 19.9287 84.8022 20.1892 84.44 20.3786C84.0778 20.5656 83.6149 20.6591 83.0515 20.6591H81.0629V19.8636H83.0231C83.4113 19.8636 83.7238 19.8068 83.9606 19.6932C84.1997 19.5795 84.3725 19.4186 84.479 19.2102C84.5879 18.9995 84.6424 18.7486 84.6424 18.4574C84.6424 18.1662 84.5879 17.9117 84.479 17.6939C84.3701 17.4761 84.1961 17.308 83.957 17.1896C83.7179 17.0689 83.4019 17.0085 83.0089 17.0085H81.4606V23.5H80.5799ZM84.0032 20.233L85.793 23.5H84.7702L83.0089 20.233H84.0032ZM86.9764 23.5V16.2273H91.3656V17.0085H87.8571V19.4659H91.1383V20.2472H87.8571V22.7188H91.4224V23.5H86.9764ZM96.6461 16.2273V23.5H95.7654V16.2273H96.6461ZM98.0142 17.0085V16.2273H103.469V17.0085H101.182V23.5H100.301V17.0085H98.0142ZM113.777 19.8636C113.777 20.6307 113.638 21.2936 113.361 21.8523C113.084 22.411 112.704 22.8419 112.221 23.1449C111.738 23.4479 111.187 23.5994 110.567 23.5994C109.946 23.5994 109.395 23.4479 108.912 23.1449C108.429 22.8419 108.049 22.411 107.772 21.8523C107.495 21.2936 107.356 20.6307 107.356 19.8636C107.356 19.0966 107.495 18.4337 107.772 17.875C108.049 17.3163 108.429 16.8854 108.912 16.5824C109.395 16.2794 109.946 16.1278 110.567 16.1278C111.187 16.1278 111.738 16.2794 112.221 16.5824C112.704 16.8854 113.084 17.3163 113.361 17.875C113.638 18.4337 113.777 19.0966 113.777 19.8636ZM112.925 19.8636C112.925 19.2339 112.819 18.7024 112.608 18.2692C112.4 17.8359 112.117 17.508 111.76 17.2855C111.405 17.063 111.007 16.9517 110.567 16.9517C110.126 16.9517 109.727 17.063 109.37 17.2855C109.015 17.508 108.732 17.8359 108.521 18.2692C108.313 18.7024 108.209 19.2339 108.209 19.8636C108.209 20.4934 108.313 21.0249 108.521 21.4581C108.732 21.8913 109.015 22.2192 109.37 22.4418C109.727 22.6643 110.126 22.7756 110.567 22.7756C111.007 22.7756 111.405 22.6643 111.76 22.4418C112.117 22.2192 112.4 21.8913 112.608 21.4581C112.819 21.0249 112.925 20.4934 112.925 19.8636ZM121.025 16.2273V23.5H120.172L116.209 17.7898H116.138V23.5H115.258V16.2273H116.11L120.087 21.9517H120.158V16.2273H121.025Z" fill="white"/>
<path d="M50.2614 39.5H48.3977L52.5852 27.8636H54.6136L58.8011 39.5H56.9375L53.6477 29.9773H53.5568L50.2614 39.5ZM50.5739 34.9432H56.6193V36.4205H50.5739V34.9432ZM60.3452 42.7727V30.7727H62.0043V32.1875H62.1463C62.2448 32.0057 62.3868 31.7955 62.5724 31.5568C62.758 31.3182 63.0156 31.1098 63.3452 30.9318C63.6747 30.75 64.1103 30.6591 64.652 30.6591C65.3565 30.6591 65.9853 30.8371 66.5384 31.1932C67.0914 31.5492 67.5251 32.0625 67.8395 32.733C68.1577 33.4034 68.3168 34.2102 68.3168 35.1534C68.3168 36.0966 68.1596 36.9053 67.8452 37.5795C67.5308 38.25 67.099 38.767 66.5497 39.1307C66.0005 39.4905 65.3736 39.6705 64.669 39.6705C64.1387 39.6705 63.705 39.5814 63.3679 39.4034C63.0346 39.2254 62.7732 39.017 62.5838 38.7784C62.3944 38.5398 62.2486 38.3277 62.1463 38.142H62.044V42.7727H60.3452ZM62.0099 35.1364C62.0099 35.75 62.099 36.2879 62.277 36.75C62.455 37.2121 62.7126 37.5739 63.0497 37.8352C63.3868 38.0928 63.7997 38.2216 64.2884 38.2216C64.7959 38.2216 65.2202 38.0871 65.5611 37.8182C65.902 37.5455 66.1596 37.1761 66.3338 36.7102C66.5118 36.2443 66.6009 35.7197 66.6009 35.1364C66.6009 34.5606 66.5137 34.0436 66.3395 33.5852C66.169 33.1269 65.9115 32.7652 65.5668 32.5C65.2259 32.2348 64.7997 32.1023 64.2884 32.1023C63.7959 32.1023 63.3793 32.2292 63.0384 32.483C62.7012 32.7367 62.4455 33.0909 62.2713 33.5455C62.0971 34 62.0099 34.5303 62.0099 35.1364ZM70.2202 42.7727V30.7727H71.8793V32.1875H72.0213C72.1198 32.0057 72.2618 31.7955 72.4474 31.5568C72.633 31.3182 72.8906 31.1098 73.2202 30.9318C73.5497 30.75 73.9853 30.6591 74.527 30.6591C75.2315 30.6591 75.8603 30.8371 76.4134 31.1932C76.9664 31.5492 77.4001 32.0625 77.7145 32.733C78.0327 33.4034 78.1918 34.2102 78.1918 35.1534C78.1918 36.0966 78.0346 36.9053 77.7202 37.5795C77.4058 38.25 76.974 38.767 76.4247 39.1307C75.8755 39.4905 75.2486 39.6705 74.544 39.6705C74.0137 39.6705 73.58 39.5814 73.2429 39.4034C72.9096 39.2254 72.6482 39.017 72.4588 38.7784C72.2694 38.5398 72.1236 38.3277 72.0213 38.142H71.919V42.7727H70.2202ZM71.8849 35.1364C71.8849 35.75 71.974 36.2879 72.152 36.75C72.33 37.2121 72.5876 37.5739 72.9247 37.8352C73.2618 38.0928 73.6747 38.2216 74.1634 38.2216C74.6709 38.2216 75.0952 38.0871 75.4361 37.8182C75.777 37.5455 76.0346 37.1761 76.2088 36.7102C76.3868 36.2443 76.4759 35.7197 76.4759 35.1364C76.4759 34.5606 76.3887 34.0436 76.2145 33.5852C76.044 33.1269 75.7865 32.7652 75.4418 32.5C75.1009 32.2348 74.6747 32.1023 74.1634 32.1023C73.6709 32.1023 73.2543 32.2292 72.9134 32.483C72.5762 32.7367 72.3205 33.0909 72.1463 33.5455C71.9721 34 71.8849 34.5303 71.8849 35.1364ZM88.1065 31.5398C87.9967 31.1951 87.849 30.8864 87.6634 30.6136C87.4815 30.3371 87.2637 30.1023 87.0099 29.9091C86.7562 29.7121 86.4664 29.5625 86.1406 29.4602C85.8187 29.358 85.4645 29.3068 85.0781 29.3068C84.4228 29.3068 83.8319 29.4754 83.3054 29.8125C82.7789 30.1496 82.3622 30.6439 82.0554 31.2955C81.7524 31.9432 81.6009 32.7367 81.6009 33.6761C81.6009 34.6193 81.7543 35.4167 82.0611 36.0682C82.3679 36.7197 82.7884 37.214 83.3224 37.5511C83.8565 37.8883 84.4645 38.0568 85.1463 38.0568C85.7789 38.0568 86.33 37.928 86.7997 37.6705C87.2732 37.4129 87.6387 37.0492 87.8963 36.5795C88.1577 36.1061 88.2884 35.5492 88.2884 34.9091L88.7429 34.9943H85.4134V33.5455H89.9872V34.8693C89.9872 35.8466 89.7789 36.6951 89.3622 37.4148C88.9493 38.1307 88.3774 38.6837 87.6463 39.0739C86.919 39.464 86.0857 39.6591 85.1463 39.6591C84.0933 39.6591 83.169 39.4167 82.3736 38.9318C81.5819 38.447 80.9645 37.7595 80.5213 36.8693C80.0781 35.9754 79.8565 34.9148 79.8565 33.6875C79.8565 32.7595 79.9853 31.9261 80.2429 31.1875C80.5005 30.4489 80.8622 29.822 81.3281 29.3068C81.7978 28.7879 82.349 28.392 82.9815 28.1193C83.6179 27.8428 84.313 27.7045 85.0668 27.7045C85.6955 27.7045 86.2808 27.7973 86.8224 27.983C87.3679 28.1686 87.8527 28.4318 88.277 28.7727C88.705 29.1136 89.0592 29.5189 89.3395 29.9886C89.6198 30.4545 89.8092 30.9716 89.9077 31.5398H88.1065ZM94.6193 39.6932C94.0663 39.6932 93.5663 39.5909 93.1193 39.3864C92.6723 39.178 92.3182 38.8769 92.0568 38.483C91.7992 38.089 91.6705 37.6061 91.6705 37.0341C91.6705 36.5417 91.7652 36.1364 91.9545 35.8182C92.1439 35.5 92.3996 35.2481 92.7216 35.0625C93.0436 34.8769 93.4034 34.7367 93.8011 34.642C94.1989 34.5473 94.6042 34.4754 95.017 34.4261C95.5398 34.3655 95.964 34.3163 96.2898 34.2784C96.6155 34.2367 96.8523 34.1705 97 34.0795C97.1477 33.9886 97.2216 33.8409 97.2216 33.6364V33.5966C97.2216 33.1004 97.0814 32.7159 96.8011 32.4432C96.5246 32.1705 96.1117 32.0341 95.5625 32.0341C94.9905 32.0341 94.5398 32.161 94.2102 32.4148C93.8845 32.6648 93.6591 32.9432 93.5341 33.25L91.9375 32.8864C92.1269 32.3561 92.4034 31.928 92.767 31.6023C93.1345 31.2727 93.5568 31.0341 94.0341 30.8864C94.5114 30.7348 95.0133 30.6591 95.5398 30.6591C95.8883 30.6591 96.2576 30.7008 96.6477 30.7841C97.0417 30.8636 97.4091 31.0114 97.75 31.2273C98.0947 31.4432 98.3769 31.7519 98.5966 32.1534C98.8163 32.5511 98.9261 33.0682 98.9261 33.7045V39.5H97.267V38.3068H97.1989C97.089 38.5265 96.9242 38.7424 96.7045 38.9545C96.4848 39.1667 96.2027 39.3428 95.858 39.483C95.5133 39.6231 95.1004 39.6932 94.6193 39.6932ZM94.9886 38.3295C95.4583 38.3295 95.8598 38.2367 96.1932 38.0511C96.5303 37.8655 96.786 37.6231 96.9602 37.3239C97.1383 37.0208 97.2273 36.697 97.2273 36.3523V35.2273C97.1667 35.2879 97.0492 35.3447 96.875 35.3977C96.7045 35.447 96.5095 35.4905 96.2898 35.5284C96.0701 35.5625 95.8561 35.5947 95.6477 35.625C95.4394 35.6515 95.2652 35.6742 95.125 35.6932C94.7955 35.7348 94.4943 35.8049 94.2216 35.9034C93.9527 36.0019 93.7367 36.1439 93.5739 36.3295C93.4148 36.5114 93.3352 36.7538 93.3352 37.0568C93.3352 37.4773 93.4905 37.7955 93.8011 38.0114C94.1117 38.2235 94.5076 38.3295 94.9886 38.3295ZM102.888 27.8636V39.5H101.189V27.8636H102.888ZM106.872 27.8636V39.5H105.173V27.8636H106.872ZM112.919 39.6761C112.059 39.6761 111.319 39.4924 110.697 39.125C110.08 38.7538 109.603 38.233 109.266 37.5625C108.932 36.8883 108.766 36.0985 108.766 35.1932C108.766 34.2992 108.932 33.5114 109.266 32.8295C109.603 32.1477 110.072 31.6155 110.675 31.233C111.281 30.8504 111.989 30.6591 112.8 30.6591C113.292 30.6591 113.769 30.7405 114.232 30.9034C114.694 31.0663 115.108 31.322 115.476 31.6705C115.843 32.0189 116.133 32.4716 116.345 33.0284C116.557 33.5814 116.663 34.2538 116.663 35.0455V35.6477H109.726V34.375H114.999C114.999 33.928 114.908 33.5322 114.726 33.1875C114.544 32.839 114.288 32.5644 113.959 32.3636C113.633 32.1629 113.25 32.0625 112.811 32.0625C112.334 32.0625 111.917 32.1799 111.561 32.4148C111.209 32.6458 110.936 32.9489 110.743 33.3239C110.554 33.6951 110.459 34.0985 110.459 34.5341V35.5284C110.459 36.1117 110.561 36.608 110.766 37.017C110.974 37.4261 111.264 37.7386 111.635 37.9545C112.006 38.1667 112.44 38.2727 112.936 38.2727C113.258 38.2727 113.552 38.2273 113.817 38.1364C114.082 38.0417 114.311 37.9015 114.504 37.7159C114.697 37.5303 114.845 37.3011 114.947 37.0284L116.555 37.3182C116.427 37.7917 116.196 38.2064 115.862 38.5625C115.533 38.9148 115.118 39.1894 114.618 39.3864C114.122 39.5795 113.555 39.6761 112.919 39.6761ZM118.548 39.5V30.7727H120.19V32.1591H120.281C120.44 31.6894 120.721 31.3201 121.122 31.0511C121.527 30.7784 121.986 30.642 122.497 30.642C122.603 30.642 122.728 30.6458 122.872 30.6534C123.02 30.661 123.135 30.6705 123.219 30.6818V32.3068C123.151 32.2879 123.029 32.267 122.855 32.2443C122.681 32.2178 122.507 32.2045 122.332 32.2045C121.931 32.2045 121.573 32.2898 121.259 32.4602C120.948 32.6269 120.702 32.8598 120.52 33.1591C120.338 33.4545 120.247 33.7917 120.247 34.1705V39.5H118.548ZM126.028 42.7727C125.775 42.7727 125.544 42.7519 125.335 42.7102C125.127 42.6723 124.972 42.6307 124.869 42.5852L125.278 41.1932C125.589 41.2765 125.866 41.3125 126.108 41.3011C126.35 41.2898 126.564 41.1989 126.75 41.0284C126.939 40.858 127.106 40.5795 127.25 40.1932L127.46 39.6136L124.267 30.7727H126.085L128.295 37.5455H128.386L130.597 30.7727H132.42L128.824 40.6648C128.657 41.1193 128.445 41.5038 128.188 41.8182C127.93 42.1364 127.623 42.375 127.267 42.5341C126.911 42.6932 126.498 42.7727 126.028 42.7727Z" fill="white"/>
<defs>
<clipPath id="clip0_166_6952">
<rect width="24" height="24" fill="white" transform="translate(16 16)"/>
</clipPath>
</defs>
</svg>
