<svg width="156" height="56" viewBox="0 0 156 56" fill="none" xmlns="http://www.w3.org/2000/svg">
<path d="M0 10C0 4.47715 4.47715 0 10 0H146C151.523 0 156 4.47715 156 10V46C156 51.5229 151.523 56 146 56H10C4.47716 56 0 51.5228 0 46V10Z" fill="#212121"/>
<path d="M34.3573 28.7284C34.3899 32.2534 37.4499 33.4266 37.4837 33.4416C37.4578 33.5241 36.9949 35.1133 35.8717 36.7545C34.9009 38.1735 33.8931 39.5873 32.3059 39.6169C30.7462 39.6454 30.2447 38.6918 28.4614 38.6918C26.6786 38.6918 26.1216 39.5873 24.645 39.6454C23.1127 39.7035 21.9459 38.1107 20.967 36.6972C18.9667 33.8052 17.4381 28.525 19.4906 24.9608C20.5102 23.1908 22.3327 22.0701 24.3107 22.0412C25.8152 22.0125 27.2353 23.0533 28.155 23.0533C29.0741 23.0533 30.7999 21.8016 32.6141 21.9853C33.3737 22.017 35.5056 22.2921 36.8745 24.2961C36.7644 24.3645 34.3309 25.7813 34.3573 28.7284ZM31.4261 20.0723C32.2395 19.0877 32.787 17.7167 32.6377 16.353C31.4651 16.4001 30.0472 17.1343 29.2063 18.1185C28.4526 18.9898 27.7926 20.3848 27.9705 21.7215C29.2776 21.8228 30.6126 21.0574 31.4261 20.0723Z" fill="white"/>
<path d="M51.125 23.5H48.8807V16.2273H51.2244C51.9299 16.2273 52.5336 16.3729 53.0355 16.6641C53.5374 16.9529 53.9221 17.3684 54.1896 17.9105C54.4571 18.4503 54.5909 19.0966 54.5909 19.8494C54.5909 20.607 54.456 21.2592 54.1861 21.8061C53.9162 22.3506 53.5232 22.7696 53.0071 23.0632C52.491 23.3544 51.8636 23.5 51.125 23.5ZM49.7614 22.7188H51.0682C51.6695 22.7188 52.1679 22.6027 52.5632 22.3707C52.9586 22.1387 53.2533 21.8085 53.4474 21.38C53.6416 20.9515 53.7386 20.4413 53.7386 19.8494C53.7386 19.2623 53.6428 18.7569 53.451 18.3331C53.2592 17.907 52.9728 17.5803 52.5916 17.353C52.2105 17.1233 51.7358 17.0085 51.1676 17.0085H49.7614V22.7188ZM58.1705 23.6136C57.678 23.6136 57.246 23.4964 56.8743 23.2621C56.505 23.0277 56.2161 22.6998 56.0078 22.2784C55.8018 21.857 55.6989 21.3646 55.6989 20.8011C55.6989 20.233 55.8018 19.737 56.0078 19.3132C56.2161 18.8894 56.505 18.5604 56.8743 18.326C57.246 18.0916 57.678 17.9744 58.1705 17.9744C58.6629 17.9744 59.0938 18.0916 59.4631 18.326C59.8348 18.5604 60.1236 18.8894 60.3295 19.3132C60.5379 19.737 60.642 20.233 60.642 20.8011C60.642 21.3646 60.5379 21.857 60.3295 22.2784C60.1236 22.6998 59.8348 23.0277 59.4631 23.2621C59.0938 23.4964 58.6629 23.6136 58.1705 23.6136ZM58.1705 22.8608C58.5445 22.8608 58.8523 22.7649 59.0938 22.5732C59.3352 22.3814 59.514 22.1293 59.63 21.8168C59.746 21.5043 59.804 21.1657 59.804 20.8011C59.804 20.4366 59.746 20.0968 59.63 19.782C59.514 19.4671 59.3352 19.2126 59.0938 19.0185C58.8523 18.8243 58.5445 18.7273 58.1705 18.7273C57.7964 18.7273 57.4886 18.8243 57.2472 19.0185C57.0057 19.2126 56.8269 19.4671 56.7109 19.782C56.5949 20.0968 56.5369 20.4366 56.5369 20.8011C56.5369 21.1657 56.5949 21.5043 56.7109 21.8168C56.8269 22.1293 57.0057 22.3814 57.2472 22.5732C57.4886 22.7649 57.7964 22.8608 58.1705 22.8608ZM62.9716 23.5L61.3097 18.0455H62.1903L63.3693 22.2216H63.4261L64.5909 18.0455H65.4858L66.6364 22.2074H66.6932L67.8722 18.0455H68.7528L67.0909 23.5H66.267L65.0739 19.3097H64.9886L63.7955 23.5H62.9716ZM70.6989 20.2188V23.5H69.8608V18.0455H70.6705V18.8977H70.7415C70.8693 18.6207 71.0634 18.3982 71.3239 18.2301C71.5843 18.0597 71.9205 17.9744 72.3324 17.9744C72.7017 17.9744 73.0249 18.0502 73.3018 18.2017C73.5788 18.3509 73.7943 18.5781 73.9482 18.8835C74.102 19.1866 74.179 19.5701 74.179 20.0341V23.5H73.3409V20.0909C73.3409 19.6624 73.2296 19.3286 73.0071 19.0895C72.7846 18.848 72.4792 18.7273 72.0909 18.7273C71.8234 18.7273 71.5843 18.7853 71.3736 18.9013C71.1652 19.0173 71.0007 19.1866 70.88 19.4091C70.7592 19.6316 70.6989 19.9015 70.6989 20.2188ZM76.5485 16.2273V23.5H75.7104V16.2273H76.5485ZM80.2994 23.6136C79.8069 23.6136 79.3749 23.4964 79.0032 23.2621C78.6339 23.0277 78.3451 22.6998 78.1367 22.2784C77.9308 21.857 77.8278 21.3646 77.8278 20.8011C77.8278 20.233 77.9308 19.737 78.1367 19.3132C78.3451 18.8894 78.6339 18.5604 79.0032 18.326C79.3749 18.0916 79.8069 17.9744 80.2994 17.9744C80.7918 17.9744 81.2227 18.0916 81.592 18.326C81.9637 18.5604 82.2525 18.8894 82.4585 19.3132C82.6668 19.737 82.771 20.233 82.771 20.8011C82.771 21.3646 82.6668 21.857 82.4585 22.2784C82.2525 22.6998 81.9637 23.0277 81.592 23.2621C81.2227 23.4964 80.7918 23.6136 80.2994 23.6136ZM80.2994 22.8608C80.6734 22.8608 80.9812 22.7649 81.2227 22.5732C81.4641 22.3814 81.6429 22.1293 81.7589 21.8168C81.8749 21.5043 81.9329 21.1657 81.9329 20.8011C81.9329 20.4366 81.8749 20.0968 81.7589 19.782C81.6429 19.4671 81.4641 19.2126 81.2227 19.0185C80.9812 18.8243 80.6734 18.7273 80.2994 18.7273C79.9253 18.7273 79.6175 18.8243 79.3761 19.0185C79.1346 19.2126 78.9558 19.4671 78.8398 19.782C78.7238 20.0968 78.6658 20.4366 78.6658 20.8011C78.6658 21.1657 78.7238 21.5043 78.8398 21.8168C78.9558 22.1293 79.1346 22.3814 79.3761 22.5732C79.6175 22.7649 79.9253 22.8608 80.2994 22.8608ZM85.6554 23.6278C85.3097 23.6278 84.996 23.5627 84.7143 23.4325C84.4326 23.3 84.2089 23.1094 84.0431 22.8608C83.8774 22.6098 83.7946 22.3068 83.7946 21.9517C83.7946 21.6392 83.8561 21.3859 83.9792 21.1918C84.1023 20.9953 84.2669 20.8414 84.4728 20.7301C84.6788 20.6188 84.9061 20.536 85.1547 20.4815C85.4056 20.4247 85.6577 20.3797 85.911 20.3466C86.2425 20.304 86.5112 20.272 86.7172 20.2507C86.9255 20.227 87.077 20.188 87.1717 20.1335C87.2688 20.0791 87.3173 19.9844 87.3173 19.8494V19.821C87.3173 19.4706 87.2214 19.1984 87.0297 19.0043C86.8403 18.8101 86.5526 18.7131 86.1667 18.7131C85.7666 18.7131 85.4529 18.8007 85.2257 18.9759C84.9984 19.151 84.8386 19.3381 84.7463 19.5369L83.9508 19.2528C84.0929 18.9214 84.2823 18.6634 84.519 18.4787C84.7581 18.2917 85.0185 18.1615 85.3002 18.0881C85.5843 18.0123 85.8637 17.9744 86.1383 17.9744C86.3135 17.9744 86.5147 17.9957 86.742 18.0384C86.9717 18.0786 87.193 18.1626 87.4061 18.2905C87.6215 18.4183 87.8002 18.6113 87.9423 18.8693C88.0843 19.1274 88.1554 19.473 88.1554 19.9062V23.5H87.3173V22.7614H87.2747C87.2179 22.8797 87.1232 23.0064 86.9906 23.1413C86.858 23.2763 86.6816 23.3911 86.4615 23.4858C86.2413 23.5805 85.9726 23.6278 85.6554 23.6278ZM85.7832 22.875C86.1146 22.875 86.394 22.8099 86.6213 22.6797C86.8509 22.5495 87.0237 22.3814 87.1397 22.1754C87.2581 21.9695 87.3173 21.7528 87.3173 21.5256V20.7585C87.2818 20.8011 87.2037 20.8402 87.0829 20.8757C86.9645 20.9089 86.8272 20.9384 86.671 20.9645C86.5171 20.9882 86.3668 21.0095 86.22 21.0284C86.0756 21.045 85.9584 21.0592 85.8684 21.071C85.6506 21.0994 85.447 21.1456 85.2576 21.2095C85.0706 21.2711 84.9191 21.3646 84.8031 21.4901C84.6895 21.6132 84.6326 21.7812 84.6326 21.9943C84.6326 22.2855 84.7404 22.5057 84.9558 22.6548C85.1736 22.8016 85.4494 22.875 85.7832 22.875ZM91.7447 23.6136C91.2901 23.6136 90.8888 23.4988 90.5408 23.2692C90.1928 23.0372 89.9206 22.7105 89.7241 22.2891C89.5276 21.8653 89.4293 21.3646 89.4293 20.7869C89.4293 20.214 89.5276 19.7169 89.7241 19.2955C89.9206 18.8741 90.194 18.5485 90.5444 18.3189C90.8948 18.0893 91.2996 17.9744 91.7589 17.9744C92.114 17.9744 92.3945 18.0336 92.6005 18.152C92.8088 18.268 92.9674 18.4006 93.0763 18.5497C93.1876 18.6965 93.274 18.8172 93.3356 18.9119H93.4066V16.2273H94.2447V23.5H93.435V22.6619H93.3356C93.274 22.7614 93.1864 22.8868 93.0728 23.0384C92.9592 23.1875 92.797 23.3213 92.5863 23.4396C92.3756 23.5556 92.0951 23.6136 91.7447 23.6136ZM91.8583 22.8608C92.1945 22.8608 92.4786 22.7732 92.7106 22.598C92.9426 22.4205 93.119 22.1754 93.2397 21.8629C93.3604 21.5481 93.4208 21.1847 93.4208 20.7727C93.4208 20.3655 93.3616 20.0092 93.2433 19.7038C93.1249 19.3961 92.9497 19.157 92.7177 18.9865C92.4857 18.8137 92.1992 18.7273 91.8583 18.7273C91.5032 18.7273 91.2073 18.8184 90.9705 19.0007C90.7362 19.1806 90.5598 19.4257 90.4414 19.7358C90.3254 20.0436 90.2674 20.3892 90.2674 20.7727C90.2674 21.161 90.3266 21.5137 90.445 21.831C90.5657 22.1458 90.7433 22.3968 90.9776 22.5838C91.2144 22.7685 91.5079 22.8608 91.8583 22.8608ZM100.924 23.6136C100.432 23.6136 99.9999 23.4964 99.6282 23.2621C99.2589 23.0277 98.9701 22.6998 98.7617 22.2784C98.5558 21.857 98.4528 21.3646 98.4528 20.8011C98.4528 20.233 98.5558 19.737 98.7617 19.3132C98.9701 18.8894 99.2589 18.5604 99.6282 18.326C99.9999 18.0916 100.432 17.9744 100.924 17.9744C101.417 17.9744 101.848 18.0916 102.217 18.326C102.589 18.5604 102.877 18.8894 103.083 19.3132C103.292 19.737 103.396 20.233 103.396 20.8011C103.396 21.3646 103.292 21.857 103.083 22.2784C102.877 22.6998 102.589 23.0277 102.217 23.2621C101.848 23.4964 101.417 23.6136 100.924 23.6136ZM100.924 22.8608C101.298 22.8608 101.606 22.7649 101.848 22.5732C102.089 22.3814 102.268 22.1293 102.384 21.8168C102.5 21.5043 102.558 21.1657 102.558 20.8011C102.558 20.4366 102.5 20.0968 102.384 19.782C102.268 19.4671 102.089 19.2126 101.848 19.0185C101.606 18.8243 101.298 18.7273 100.924 18.7273C100.55 18.7273 100.243 18.8243 100.001 19.0185C99.7596 19.2126 99.5808 19.4671 99.4648 19.782C99.3488 20.0968 99.2908 20.4366 99.2908 20.8011C99.2908 21.1657 99.3488 21.5043 99.4648 21.8168C99.5808 22.1293 99.7596 22.3814 100.001 22.5732C100.243 22.7649 100.55 22.8608 100.924 22.8608ZM105.513 20.2188V23.5H104.675V18.0455H105.485V18.8977H105.556C105.684 18.6207 105.878 18.3982 106.138 18.2301C106.399 18.0597 106.735 17.9744 107.147 17.9744C107.516 17.9744 107.839 18.0502 108.116 18.2017C108.393 18.3509 108.609 18.5781 108.763 18.8835C108.916 19.1866 108.993 19.5701 108.993 20.0341V23.5H108.155V20.0909C108.155 19.6624 108.044 19.3286 107.822 19.0895C107.599 18.848 107.294 18.7273 106.905 18.7273C106.638 18.7273 106.399 18.7853 106.188 18.9013C105.98 19.0173 105.815 19.1866 105.694 19.4091C105.574 19.6316 105.513 19.9015 105.513 20.2188ZM115.71 18.0455V18.7557H112.883V18.0455H115.71ZM113.707 16.7386H114.545V21.9375C114.545 22.1742 114.579 22.3518 114.648 22.4702C114.719 22.5862 114.809 22.6643 114.918 22.7045C115.029 22.7424 115.146 22.7614 115.269 22.7614C115.362 22.7614 115.437 22.7566 115.496 22.7472C115.556 22.7353 115.603 22.7259 115.638 22.7188L115.809 23.4716C115.752 23.4929 115.673 23.5142 115.571 23.5355C115.469 23.5592 115.34 23.571 115.184 23.571C114.947 23.571 114.715 23.5201 114.488 23.4183C114.263 23.3165 114.076 23.1615 113.927 22.9531C113.78 22.7448 113.707 22.482 113.707 22.1648V16.7386ZM117.925 20.2188V23.5H117.087V16.2273H117.925V18.8977H117.996C118.124 18.616 118.316 18.3923 118.572 18.2266C118.83 18.0585 119.173 17.9744 119.602 17.9744C119.973 17.9744 120.299 18.049 120.578 18.1982C120.857 18.3449 121.074 18.571 121.228 18.8764C121.384 19.1795 121.462 19.5653 121.462 20.0341V23.5H120.624V20.0909C120.624 19.6577 120.512 19.3227 120.287 19.0859C120.064 18.8468 119.755 18.7273 119.36 18.7273C119.085 18.7273 118.839 18.7853 118.621 18.9013C118.406 19.0173 118.236 19.1866 118.11 19.4091C117.987 19.6316 117.925 19.9015 117.925 20.2188ZM125.282 23.6136C124.757 23.6136 124.304 23.4976 123.922 23.2656C123.544 23.0312 123.251 22.7045 123.045 22.2855C122.842 21.8641 122.74 21.3741 122.74 20.8153C122.74 20.2566 122.842 19.7642 123.045 19.3381C123.251 18.9096 123.538 18.5758 123.905 18.3366C124.274 18.0952 124.705 17.9744 125.197 17.9744C125.481 17.9744 125.762 18.0218 126.039 18.1165C126.316 18.2112 126.568 18.3651 126.795 18.5781C127.023 18.7888 127.204 19.0682 127.339 19.4162C127.474 19.7642 127.541 20.1927 127.541 20.7017V21.0568H123.336V20.3324H126.689C126.689 20.0246 126.627 19.75 126.504 19.5085C126.383 19.267 126.211 19.0765 125.986 18.9368C125.763 18.7971 125.5 18.7273 125.197 18.7273C124.863 18.7273 124.575 18.8101 124.331 18.9759C124.089 19.1392 123.903 19.3523 123.773 19.6151C123.643 19.8778 123.578 20.1596 123.578 20.4602V20.9432C123.578 21.3551 123.649 21.7043 123.791 21.9908C123.935 22.2749 124.135 22.4915 124.391 22.6406C124.647 22.7874 124.944 22.8608 125.282 22.8608C125.503 22.8608 125.702 22.83 125.879 22.7685C126.059 22.7045 126.214 22.6098 126.344 22.4844C126.474 22.3565 126.575 22.1979 126.646 22.0085L127.456 22.2358C127.371 22.5104 127.227 22.7519 127.026 22.9602C126.825 23.1662 126.576 23.3272 126.28 23.4432C125.984 23.5568 125.652 23.6136 125.282 23.6136Z" fill="white"/>
<path d="M50.2614 39.5H48.3977L52.5852 27.8636H54.6136L58.8011 39.5H56.9375L53.6477 29.9773H53.5568L50.2614 39.5ZM50.5739 34.9432H56.6193V36.4205H50.5739V34.9432ZM60.3452 42.7727V30.7727H62.0043V32.1875H62.1463C62.2448 32.0057 62.3868 31.7955 62.5724 31.5568C62.758 31.3182 63.0156 31.1098 63.3452 30.9318C63.6747 30.75 64.1103 30.6591 64.652 30.6591C65.3565 30.6591 65.9853 30.8371 66.5384 31.1932C67.0914 31.5492 67.5251 32.0625 67.8395 32.733C68.1577 33.4034 68.3168 34.2102 68.3168 35.1534C68.3168 36.0966 68.1596 36.9053 67.8452 37.5795C67.5308 38.25 67.099 38.767 66.5497 39.1307C66.0005 39.4905 65.3736 39.6705 64.669 39.6705C64.1387 39.6705 63.705 39.5814 63.3679 39.4034C63.0346 39.2254 62.7732 39.017 62.5838 38.7784C62.3944 38.5398 62.2486 38.3277 62.1463 38.142H62.044V42.7727H60.3452ZM62.0099 35.1364C62.0099 35.75 62.099 36.2879 62.277 36.75C62.455 37.2121 62.7126 37.5739 63.0497 37.8352C63.3868 38.0928 63.7997 38.2216 64.2884 38.2216C64.7959 38.2216 65.2202 38.0871 65.5611 37.8182C65.902 37.5455 66.1596 37.1761 66.3338 36.7102C66.5118 36.2443 66.6009 35.7197 66.6009 35.1364C66.6009 34.5606 66.5137 34.0436 66.3395 33.5852C66.169 33.1269 65.9115 32.7652 65.5668 32.5C65.2259 32.2348 64.7997 32.1023 64.2884 32.1023C63.7959 32.1023 63.3793 32.2292 63.0384 32.483C62.7012 32.7367 62.4455 33.0909 62.2713 33.5455C62.0971 34 62.0099 34.5303 62.0099 35.1364ZM70.2202 42.7727V30.7727H71.8793V32.1875H72.0213C72.1198 32.0057 72.2618 31.7955 72.4474 31.5568C72.633 31.3182 72.8906 31.1098 73.2202 30.9318C73.5497 30.75 73.9853 30.6591 74.527 30.6591C75.2315 30.6591 75.8603 30.8371 76.4134 31.1932C76.9664 31.5492 77.4001 32.0625 77.7145 32.733C78.0327 33.4034 78.1918 34.2102 78.1918 35.1534C78.1918 36.0966 78.0346 36.9053 77.7202 37.5795C77.4058 38.25 76.974 38.767 76.4247 39.1307C75.8755 39.4905 75.2486 39.6705 74.544 39.6705C74.0137 39.6705 73.58 39.5814 73.2429 39.4034C72.9096 39.2254 72.6482 39.017 72.4588 38.7784C72.2694 38.5398 72.1236 38.3277 72.0213 38.142H71.919V42.7727H70.2202ZM71.8849 35.1364C71.8849 35.75 71.974 36.2879 72.152 36.75C72.33 37.2121 72.5876 37.5739 72.9247 37.8352C73.2618 38.0928 73.6747 38.2216 74.1634 38.2216C74.6709 38.2216 75.0952 38.0871 75.4361 37.8182C75.777 37.5455 76.0346 37.1761 76.2088 36.7102C76.3868 36.2443 76.4759 35.7197 76.4759 35.1364C76.4759 34.5606 76.3887 34.0436 76.2145 33.5852C76.044 33.1269 75.7865 32.7652 75.4418 32.5C75.1009 32.2348 74.6747 32.1023 74.1634 32.1023C73.6709 32.1023 73.2543 32.2292 72.9134 32.483C72.5762 32.7367 72.3205 33.0909 72.1463 33.5455C71.9721 34 71.8849 34.5303 71.8849 35.1364ZM90.8125 30.9205C90.7519 30.3826 90.5019 29.9659 90.0625 29.6705C89.6231 29.3712 89.0701 29.2216 88.4034 29.2216C87.9261 29.2216 87.5133 29.2973 87.1648 29.4489C86.8163 29.5966 86.5455 29.8011 86.3523 30.0625C86.1629 30.3201 86.0682 30.6136 86.0682 30.9432C86.0682 31.2197 86.1326 31.4583 86.2614 31.6591C86.3939 31.8598 86.5663 32.0284 86.7784 32.1648C86.9943 32.2973 87.2254 32.4091 87.4716 32.5C87.7178 32.5871 87.9545 32.6591 88.1818 32.7159L89.3182 33.0114C89.6894 33.1023 90.0701 33.2254 90.4602 33.3807C90.8504 33.536 91.2121 33.7405 91.5455 33.9943C91.8788 34.2481 92.1477 34.5625 92.3523 34.9375C92.5606 35.3125 92.6648 35.7614 92.6648 36.2841C92.6648 36.9432 92.4943 37.5284 92.1534 38.0398C91.8163 38.5511 91.3258 38.9545 90.6818 39.25C90.0417 39.5455 89.267 39.6932 88.358 39.6932C87.4867 39.6932 86.733 39.5549 86.0966 39.2784C85.4602 39.0019 84.9621 38.6098 84.6023 38.1023C84.2424 37.5909 84.0436 36.9848 84.0057 36.2841H85.767C85.8011 36.7045 85.9375 37.0549 86.1761 37.3352C86.4186 37.6117 86.7273 37.8182 87.1023 37.9545C87.4811 38.0871 87.8958 38.1534 88.3466 38.1534C88.8428 38.1534 89.2841 38.0758 89.6705 37.9205C90.0606 37.7614 90.3674 37.5417 90.5909 37.2614C90.8144 36.9773 90.9261 36.6458 90.9261 36.267C90.9261 35.9223 90.8277 35.6402 90.6307 35.4205C90.4375 35.2008 90.1742 35.0189 89.8409 34.875C89.5114 34.7311 89.1383 34.6042 88.7216 34.4943L87.3466 34.1193C86.4148 33.8655 85.6761 33.4924 85.1307 33C84.589 32.5076 84.3182 31.8561 84.3182 31.0455C84.3182 30.375 84.5 29.7898 84.8636 29.2898C85.2273 28.7898 85.7197 28.4015 86.3409 28.125C86.9621 27.8447 87.6629 27.7045 88.4432 27.7045C89.2311 27.7045 89.9261 27.8428 90.5284 28.1193C91.1345 28.3958 91.6117 28.7765 91.9602 29.2614C92.3087 29.7424 92.4905 30.2955 92.5057 30.9205H90.8125ZM98.7003 30.7727V32.1364H93.9332V30.7727H98.7003ZM95.2116 28.6818H96.9105V36.9375C96.9105 37.267 96.9598 37.5152 97.0582 37.6818C97.1567 37.8447 97.2836 37.9564 97.4389 38.017C97.598 38.0739 97.7704 38.1023 97.956 38.1023C98.0923 38.1023 98.2116 38.0928 98.3139 38.0739C98.4162 38.0549 98.4957 38.0398 98.5526 38.0284L98.8594 39.4318C98.7609 39.4697 98.6207 39.5076 98.4389 39.5455C98.2571 39.5871 98.0298 39.6098 97.7571 39.6136C97.3101 39.6212 96.8935 39.5417 96.5071 39.375C96.1207 39.2083 95.8082 38.9508 95.5696 38.6023C95.331 38.2538 95.2116 37.8163 95.2116 37.2898V28.6818ZM104.162 39.6761C103.344 39.6761 102.63 39.4886 102.02 39.1136C101.41 38.7386 100.937 38.214 100.599 37.5398C100.262 36.8655 100.094 36.0777 100.094 35.1761C100.094 34.2708 100.262 33.4792 100.599 32.8011C100.937 32.1231 101.41 31.5966 102.02 31.2216C102.63 30.8466 103.344 30.6591 104.162 30.6591C104.98 30.6591 105.694 30.8466 106.304 31.2216C106.914 31.5966 107.387 32.1231 107.724 32.8011C108.062 33.4792 108.23 34.2708 108.23 35.1761C108.23 36.0777 108.062 36.8655 107.724 37.5398C107.387 38.214 106.914 38.7386 106.304 39.1136C105.694 39.4886 104.98 39.6761 104.162 39.6761ZM104.168 38.25C104.698 38.25 105.137 38.1098 105.486 37.8295C105.834 37.5492 106.092 37.1761 106.259 36.7102C106.429 36.2443 106.514 35.7311 106.514 35.1705C106.514 34.6136 106.429 34.1023 106.259 33.6364C106.092 33.1667 105.834 32.7898 105.486 32.5057C105.137 32.2216 104.698 32.0795 104.168 32.0795C103.634 32.0795 103.19 32.2216 102.838 32.5057C102.49 32.7898 102.23 33.1667 102.06 33.6364C101.893 34.1023 101.81 34.6136 101.81 35.1705C101.81 35.7311 101.893 36.2443 102.06 36.7102C102.23 37.1761 102.49 37.5492 102.838 37.8295C103.19 38.1098 103.634 38.25 104.168 38.25ZM110.126 39.5V30.7727H111.768V32.1591H111.859C112.018 31.6894 112.299 31.3201 112.7 31.0511C113.106 30.7784 113.564 30.642 114.075 30.642C114.181 30.642 114.306 30.6458 114.45 30.6534C114.598 30.661 114.714 30.6705 114.797 30.6818V32.3068C114.729 32.2879 114.607 32.267 114.433 32.2443C114.259 32.2178 114.085 32.2045 113.911 32.2045C113.509 32.2045 113.151 32.2898 112.837 32.4602C112.526 32.6269 112.28 32.8598 112.098 33.1591C111.916 33.4545 111.825 33.7917 111.825 34.1705V39.5H110.126ZM119.716 39.6761C118.856 39.6761 118.116 39.4924 117.494 39.125C116.877 38.7538 116.4 38.233 116.062 37.5625C115.729 36.8883 115.562 36.0985 115.562 35.1932C115.562 34.2992 115.729 33.5114 116.062 32.8295C116.4 32.1477 116.869 31.6155 117.472 31.233C118.078 30.8504 118.786 30.6591 119.597 30.6591C120.089 30.6591 120.566 30.7405 121.028 30.9034C121.491 31.0663 121.905 31.322 122.273 31.6705C122.64 32.0189 122.93 32.4716 123.142 33.0284C123.354 33.5814 123.46 34.2538 123.46 35.0455V35.6477H116.523V34.375H121.795C121.795 33.928 121.705 33.5322 121.523 33.1875C121.341 32.839 121.085 32.5644 120.756 32.3636C120.43 32.1629 120.047 32.0625 119.608 32.0625C119.131 32.0625 118.714 32.1799 118.358 32.4148C118.006 32.6458 117.733 32.9489 117.54 33.3239C117.35 33.6951 117.256 34.0985 117.256 34.5341V35.5284C117.256 36.1117 117.358 36.608 117.562 37.017C117.771 37.4261 118.061 37.7386 118.432 37.9545C118.803 38.1667 119.237 38.2727 119.733 38.2727C120.055 38.2727 120.348 38.2273 120.614 38.1364C120.879 38.0417 121.108 37.9015 121.301 37.7159C121.494 37.5303 121.642 37.3011 121.744 37.0284L123.352 37.3182C123.223 37.7917 122.992 38.2064 122.659 38.5625C122.33 38.9148 121.915 39.1894 121.415 39.3864C120.919 39.5795 120.352 39.6761 119.716 39.6761Z" fill="white"/>
</svg>
