<svg width="154" height="56" viewBox="0 0 154 56" fill="none" xmlns="http://www.w3.org/2000/svg">
<path d="M0 10C0 4.47715 4.47715 0 10 0H144C149.523 0 154 4.47715 154 10V46C154 51.5229 149.523 56 144 56H10C4.47716 56 0 51.5228 0 46V10Z" fill="#212121"/>
<g clip-path="url(#clip0_166_6939)">
<path d="M26.2743 27.4417L16.0913 37.9698C16.2057 38.3698 16.4112 38.7386 16.6921 39.0481C16.973 39.3576 17.322 39.5997 17.7122 39.7558C18.1025 39.9118 18.5237 39.9778 18.9437 39.9485C19.3638 39.9193 19.7715 39.7957 20.1357 39.5872L31.5935 33.1475L26.2743 27.4417Z" fill="#EA4335"/>
<path d="M36.571 25.6522L31.6162 22.8516L26.0391 27.6812L31.6389 33.1326L36.5559 30.362C36.9915 30.1369 37.3564 29.7984 37.6109 29.3833C37.8655 28.9682 38.0001 28.4922 38.0001 28.007C38.0001 27.5218 37.8655 27.0459 37.6109 26.6307C37.3564 26.2156 36.9915 25.8772 36.5559 25.6521L36.571 25.6522Z" fill="#FBBC04"/>
<path d="M16.0911 17.9919C16.0296 18.2165 15.999 18.4482 16 18.6808V37.281C16.0006 37.5135 16.0312 37.745 16.0911 37.97L26.6232 27.7114L16.0911 17.9919Z" fill="#4285F4"/>
<path d="M26.3502 27.9808L31.6163 22.8515L20.1737 16.3819C19.7432 16.1331 19.2535 16.0013 18.7546 16C17.5165 15.9976 16.428 16.8085 16.0913 17.9844L26.3502 27.9808Z" fill="#34A853"/>
</g>
<path d="M51.8523 18.5C51.7741 18.2609 51.6712 18.0466 51.5433 17.8572C51.4179 17.6655 51.2675 17.5021 51.0923 17.3672C50.9195 17.2322 50.723 17.1293 50.5028 17.0582C50.2827 16.9872 50.0412 16.9517 49.7784 16.9517C49.3475 16.9517 48.9557 17.063 48.603 17.2855C48.2502 17.508 47.9697 17.8359 47.7614 18.2692C47.553 18.7024 47.4489 19.2339 47.4489 19.8636C47.4489 20.4934 47.5542 21.0249 47.7649 21.4581C47.9756 21.8913 48.2609 22.2192 48.6207 22.4418C48.9806 22.6643 49.3854 22.7756 49.8352 22.7756C50.2519 22.7756 50.6188 22.6868 50.9361 22.5092C51.2557 22.3293 51.5043 22.076 51.6818 21.7493C51.8617 21.4202 51.9517 21.0331 51.9517 20.5881L52.2216 20.6449H50.0341V19.8636H52.804V20.6449C52.804 21.2438 52.6761 21.7647 52.4205 22.2074C52.1671 22.6501 51.8168 22.9934 51.3693 23.2372C50.9242 23.4787 50.4129 23.5994 49.8352 23.5994C49.1913 23.5994 48.6255 23.4479 48.1378 23.1449C47.6525 22.8419 47.2737 22.411 47.0014 21.8523C46.7315 21.2936 46.5966 20.6307 46.5966 19.8636C46.5966 19.2884 46.6735 18.7711 46.8274 18.3118C46.9837 17.8501 47.2038 17.4571 47.4879 17.1328C47.772 16.8085 48.1082 16.5599 48.4964 16.3871C48.8847 16.2143 49.312 16.1278 49.7784 16.1278C50.1619 16.1278 50.5194 16.1858 50.8509 16.3018C51.1847 16.4155 51.4818 16.5777 51.7422 16.7884C52.005 16.9967 52.224 17.2464 52.3991 17.5376C52.5743 17.8265 52.6951 18.1473 52.7614 18.5H51.8523ZM54.3123 23.5V16.2273H58.7015V17.0085H55.193V19.4659H58.4743V20.2472H55.193V22.7188H58.7583V23.5H54.3123ZM59.8912 17.0085V16.2273H65.3457V17.0085H63.0588V23.5H62.1781V17.0085H59.8912ZM70.3981 16.2273V23.5H69.5174V16.2273H70.3981ZM71.7662 17.0085V16.2273H77.2207V17.0085H74.9338V23.5H74.0531V17.0085H71.7662ZM87.5288 19.8636C87.5288 20.6307 87.3903 21.2936 87.1133 21.8523C86.8363 22.411 86.4563 22.8419 85.9734 23.1449C85.4904 23.4479 84.9388 23.5994 84.3185 23.5994C83.6983 23.5994 83.1467 23.4479 82.6637 23.1449C82.1808 22.8419 81.8008 22.411 81.5238 21.8523C81.2468 21.2936 81.1083 20.6307 81.1083 19.8636C81.1083 19.0966 81.2468 18.4337 81.5238 17.875C81.8008 17.3163 82.1808 16.8854 82.6637 16.5824C83.1467 16.2794 83.6983 16.1278 84.3185 16.1278C84.9388 16.1278 85.4904 16.2794 85.9734 16.5824C86.4563 16.8854 86.8363 17.3163 87.1133 17.875C87.3903 18.4337 87.5288 19.0966 87.5288 19.8636ZM86.6765 19.8636C86.6765 19.2339 86.5711 18.7024 86.3604 18.2692C86.1521 17.8359 85.8692 17.508 85.5117 17.2855C85.1566 17.063 84.7589 16.9517 84.3185 16.9517C83.8782 16.9517 83.4793 17.063 83.1218 17.2855C82.7667 17.508 82.4838 17.8359 82.2731 18.2692C82.0647 18.7024 81.9606 19.2339 81.9606 19.8636C81.9606 20.4934 82.0647 21.0249 82.2731 21.4581C82.4838 21.8913 82.7667 22.2192 83.1218 22.4418C83.4793 22.6643 83.8782 22.7756 84.3185 22.7756C84.7589 22.7756 85.1566 22.6643 85.5117 22.4418C85.8692 22.2192 86.1521 21.8913 86.3604 21.4581C86.5711 21.0249 86.6765 20.4934 86.6765 19.8636ZM94.7766 16.2273V23.5H93.9244L89.9613 17.7898H89.8903V23.5H89.0096V16.2273H89.8619L93.8391 21.9517H93.9102V16.2273H94.7766Z" fill="white"/>
<path d="M55.1534 31.5398C55.0436 31.1951 54.8958 30.8864 54.7102 30.6136C54.5284 30.3371 54.3106 30.1023 54.0568 29.9091C53.803 29.7121 53.5133 29.5625 53.1875 29.4602C52.8655 29.358 52.5114 29.3068 52.125 29.3068C51.4697 29.3068 50.8788 29.4754 50.3523 29.8125C49.8258 30.1496 49.4091 30.6439 49.1023 31.2955C48.7992 31.9432 48.6477 32.7367 48.6477 33.6761C48.6477 34.6193 48.8011 35.4167 49.108 36.0682C49.4148 36.7197 49.8352 37.214 50.3693 37.5511C50.9034 37.8883 51.5114 38.0568 52.1932 38.0568C52.8258 38.0568 53.3769 37.928 53.8466 37.6705C54.3201 37.4129 54.6856 37.0492 54.9432 36.5795C55.2045 36.1061 55.3352 35.5492 55.3352 34.9091L55.7898 34.9943H52.4602V33.5455H57.0341V34.8693C57.0341 35.8466 56.8258 36.6951 56.4091 37.4148C55.9962 38.1307 55.4242 38.6837 54.6932 39.0739C53.9659 39.464 53.1326 39.6591 52.1932 39.6591C51.1402 39.6591 50.2159 39.4167 49.4205 38.9318C48.6288 38.447 48.0114 37.7595 47.5682 36.8693C47.125 35.9754 46.9034 34.9148 46.9034 33.6875C46.9034 32.7595 47.0322 31.9261 47.2898 31.1875C47.5473 30.4489 47.9091 29.822 48.375 29.3068C48.8447 28.7879 49.3958 28.392 50.0284 28.1193C50.6648 27.8428 51.3598 27.7045 52.1136 27.7045C52.7424 27.7045 53.3277 27.7973 53.8693 27.983C54.4148 28.1686 54.8996 28.4318 55.3239 28.7727C55.7519 29.1136 56.1061 29.5189 56.3864 29.9886C56.6667 30.4545 56.8561 30.9716 56.9545 31.5398H55.1534ZM62.8026 39.6761C61.9844 39.6761 61.2704 39.4886 60.6605 39.1136C60.0507 38.7386 59.5772 38.214 59.2401 37.5398C58.9029 36.8655 58.7344 36.0777 58.7344 35.1761C58.7344 34.2708 58.9029 33.4792 59.2401 32.8011C59.5772 32.1231 60.0507 31.5966 60.6605 31.2216C61.2704 30.8466 61.9844 30.6591 62.8026 30.6591C63.6207 30.6591 64.3348 30.8466 64.9446 31.2216C65.5545 31.5966 66.0279 32.1231 66.3651 32.8011C66.7022 33.4792 66.8707 34.2708 66.8707 35.1761C66.8707 36.0777 66.7022 36.8655 66.3651 37.5398C66.0279 38.214 65.5545 38.7386 64.9446 39.1136C64.3348 39.4886 63.6207 39.6761 62.8026 39.6761ZM62.8082 38.25C63.3385 38.25 63.7779 38.1098 64.1264 37.8295C64.4749 37.5492 64.7325 37.1761 64.8991 36.7102C65.0696 36.2443 65.1548 35.7311 65.1548 35.1705C65.1548 34.6136 65.0696 34.1023 64.8991 33.6364C64.7325 33.1667 64.4749 32.7898 64.1264 32.5057C63.7779 32.2216 63.3385 32.0795 62.8082 32.0795C62.2741 32.0795 61.831 32.2216 61.4787 32.5057C61.1302 32.7898 60.8707 33.1667 60.7003 33.6364C60.5336 34.1023 60.4503 34.6136 60.4503 35.1705C60.4503 35.7311 60.5336 36.2443 60.7003 36.7102C60.8707 37.1761 61.1302 37.5492 61.4787 37.8295C61.831 38.1098 62.2741 38.25 62.8082 38.25ZM72.4432 39.6761C71.625 39.6761 70.911 39.4886 70.3011 39.1136C69.6913 38.7386 69.2178 38.214 68.8807 37.5398C68.5436 36.8655 68.375 36.0777 68.375 35.1761C68.375 34.2708 68.5436 33.4792 68.8807 32.8011C69.2178 32.1231 69.6913 31.5966 70.3011 31.2216C70.911 30.8466 71.625 30.6591 72.4432 30.6591C73.2614 30.6591 73.9754 30.8466 74.5852 31.2216C75.1951 31.5966 75.6686 32.1231 76.0057 32.8011C76.3428 33.4792 76.5114 34.2708 76.5114 35.1761C76.5114 36.0777 76.3428 36.8655 76.0057 37.5398C75.6686 38.214 75.1951 38.7386 74.5852 39.1136C73.9754 39.4886 73.2614 39.6761 72.4432 39.6761ZM72.4489 38.25C72.9792 38.25 73.4186 38.1098 73.767 37.8295C74.1155 37.5492 74.3731 37.1761 74.5398 36.7102C74.7102 36.2443 74.7955 35.7311 74.7955 35.1705C74.7955 34.6136 74.7102 34.1023 74.5398 33.6364C74.3731 33.1667 74.1155 32.7898 73.767 32.5057C73.4186 32.2216 72.9792 32.0795 72.4489 32.0795C71.9148 32.0795 71.4716 32.2216 71.1193 32.5057C70.7708 32.7898 70.5114 33.1667 70.3409 33.6364C70.1742 34.1023 70.0909 34.6136 70.0909 35.1705C70.0909 35.7311 70.1742 36.2443 70.3409 36.7102C70.5114 37.1761 70.7708 37.5492 71.1193 37.8295C71.4716 38.1098 71.9148 38.25 72.4489 38.25ZM82.0668 42.9545C81.3736 42.9545 80.777 42.8636 80.277 42.6818C79.7808 42.5 79.3755 42.2595 79.0611 41.9602C78.7467 41.661 78.5118 41.3333 78.3565 40.9773L79.8168 40.375C79.919 40.5417 80.0554 40.7178 80.2259 40.9034C80.4001 41.0928 80.6349 41.2538 80.9304 41.3864C81.2296 41.5189 81.6141 41.5852 82.0838 41.5852C82.7277 41.5852 83.2599 41.428 83.6804 41.1136C84.1009 40.803 84.3111 40.3068 84.3111 39.625V37.9091H84.2031C84.1009 38.0947 83.9531 38.3011 83.7599 38.5284C83.5705 38.7557 83.3092 38.9527 82.9759 39.1193C82.6425 39.286 82.2088 39.3693 81.6747 39.3693C80.9853 39.3693 80.3641 39.2083 79.8111 38.8864C79.2618 38.5606 78.8262 38.0814 78.5043 37.4489C78.1861 36.8125 78.027 36.0303 78.027 35.1023C78.027 34.1742 78.1842 33.3788 78.4986 32.7159C78.8168 32.053 79.2524 31.5455 79.8054 31.1932C80.3584 30.8371 80.9853 30.6591 81.6861 30.6591C82.2277 30.6591 82.6652 30.75 82.9986 30.9318C83.3319 31.1098 83.5914 31.3182 83.777 31.5568C83.9664 31.7955 84.1122 32.0057 84.2145 32.1875H84.3395V30.7727H86.0043V39.6932C86.0043 40.4432 85.83 41.0587 85.4815 41.5398C85.133 42.0208 84.6615 42.3769 84.0668 42.608C83.4759 42.839 82.8092 42.9545 82.0668 42.9545ZM82.0497 37.9602C82.5384 37.9602 82.9512 37.8466 83.2884 37.6193C83.6293 37.3883 83.8868 37.0587 84.0611 36.6307C84.2391 36.1989 84.3281 35.6818 84.3281 35.0795C84.3281 34.4924 84.241 33.9754 84.0668 33.5284C83.8925 33.0814 83.6368 32.733 83.2997 32.483C82.9626 32.2292 82.5459 32.1023 82.0497 32.1023C81.5384 32.1023 81.1122 32.2348 80.7713 32.5C80.4304 32.7614 80.1728 33.1174 79.9986 33.5682C79.8281 34.0189 79.7429 34.5227 79.7429 35.0795C79.7429 35.6515 79.83 36.1534 80.0043 36.5852C80.1785 37.017 80.4361 37.3542 80.777 37.5966C81.1217 37.839 81.5459 37.9602 82.0497 37.9602ZM89.9815 27.8636V39.5H88.2827V27.8636H89.9815ZM96.0284 39.6761C95.1686 39.6761 94.428 39.4924 93.8068 39.125C93.1894 38.7538 92.7121 38.233 92.375 37.5625C92.0417 36.8883 91.875 36.0985 91.875 35.1932C91.875 34.2992 92.0417 33.5114 92.375 32.8295C92.7121 32.1477 93.1818 31.6155 93.7841 31.233C94.3902 30.8504 95.0985 30.6591 95.9091 30.6591C96.4015 30.6591 96.8788 30.7405 97.3409 30.9034C97.803 31.0663 98.2178 31.322 98.5852 31.6705C98.9527 32.0189 99.2424 32.4716 99.4545 33.0284C99.6667 33.5814 99.7727 34.2538 99.7727 35.0455V35.6477H92.8352V34.375H98.108C98.108 33.928 98.017 33.5322 97.8352 33.1875C97.6534 32.839 97.3977 32.5644 97.0682 32.3636C96.7424 32.1629 96.3598 32.0625 95.9205 32.0625C95.4432 32.0625 95.0265 32.1799 94.6705 32.4148C94.3182 32.6458 94.0455 32.9489 93.8523 33.3239C93.6629 33.6951 93.5682 34.0985 93.5682 34.5341V35.5284C93.5682 36.1117 93.6705 36.608 93.875 37.017C94.0833 37.4261 94.3731 37.7386 94.7443 37.9545C95.1155 38.1667 95.5492 38.2727 96.0455 38.2727C96.3674 38.2727 96.661 38.2273 96.9261 38.1364C97.1913 38.0417 97.4205 37.9015 97.6136 37.7159C97.8068 37.5303 97.9545 37.3011 98.0568 37.0284L99.6648 37.3182C99.536 37.7917 99.3049 38.2064 98.9716 38.5625C98.642 38.9148 98.2273 39.1894 97.7273 39.3864C97.2311 39.5795 96.6648 39.6761 96.0284 39.6761ZM106.028 39.5V27.8636H110.176C111.081 27.8636 111.831 28.0284 112.426 28.358C113.021 28.6875 113.466 29.1383 113.761 29.7102C114.057 30.2784 114.205 30.9186 114.205 31.6307C114.205 32.3466 114.055 32.9905 113.756 33.5625C113.46 34.1307 113.013 34.5814 112.415 34.9148C111.82 35.2443 111.072 35.4091 110.17 35.4091H107.318V33.9205H110.011C110.583 33.9205 111.047 33.822 111.403 33.625C111.759 33.4242 112.021 33.1515 112.188 32.8068C112.354 32.4621 112.438 32.0701 112.438 31.6307C112.438 31.1913 112.354 30.8011 112.188 30.4602C112.021 30.1193 111.758 29.8523 111.398 29.6591C111.042 29.4659 110.572 29.3693 109.989 29.3693H107.784V39.5H106.028ZM117.825 27.8636V39.5H116.126V27.8636H117.825ZM122.651 39.6932C122.098 39.6932 121.598 39.5909 121.151 39.3864C120.704 39.178 120.349 38.8769 120.088 38.483C119.83 38.089 119.702 37.6061 119.702 37.0341C119.702 36.5417 119.796 36.1364 119.986 35.8182C120.175 35.5 120.431 35.2481 120.753 35.0625C121.075 34.8769 121.435 34.7367 121.832 34.642C122.23 34.5473 122.635 34.4754 123.048 34.4261C123.571 34.3655 123.995 34.3163 124.321 34.2784C124.647 34.2367 124.884 34.1705 125.031 34.0795C125.179 33.9886 125.253 33.8409 125.253 33.6364V33.5966C125.253 33.1004 125.113 32.7159 124.832 32.4432C124.556 32.1705 124.143 32.0341 123.594 32.0341C123.022 32.0341 122.571 32.161 122.241 32.4148C121.916 32.6648 121.69 32.9432 121.565 33.25L119.969 32.8864C120.158 32.3561 120.435 31.928 120.798 31.6023C121.166 31.2727 121.588 31.0341 122.065 30.8864C122.543 30.7348 123.045 30.6591 123.571 30.6591C123.92 30.6591 124.289 30.7008 124.679 30.7841C125.073 30.8636 125.44 31.0114 125.781 31.2273C126.126 31.4432 126.408 31.7519 126.628 32.1534C126.848 32.5511 126.957 33.0682 126.957 33.7045V39.5H125.298V38.3068H125.23C125.12 38.5265 124.955 38.7424 124.736 38.9545C124.516 39.1667 124.234 39.3428 123.889 39.483C123.545 39.6231 123.132 39.6932 122.651 39.6932ZM123.02 38.3295C123.49 38.3295 123.891 38.2367 124.224 38.0511C124.562 37.8655 124.817 37.6231 124.991 37.3239C125.17 37.0208 125.259 36.697 125.259 36.3523V35.2273C125.198 35.2879 125.08 35.3447 124.906 35.3977C124.736 35.447 124.541 35.4905 124.321 35.5284C124.101 35.5625 123.887 35.5947 123.679 35.625C123.471 35.6515 123.296 35.6742 123.156 35.6932C122.827 35.7348 122.526 35.8049 122.253 35.9034C121.984 36.0019 121.768 36.1439 121.605 36.3295C121.446 36.5114 121.366 36.7538 121.366 37.0568C121.366 37.4773 121.522 37.7955 121.832 38.0114C122.143 38.2235 122.539 38.3295 123.02 38.3295ZM129.982 42.7727C129.728 42.7727 129.497 42.7519 129.288 42.7102C129.08 42.6723 128.925 42.6307 128.822 42.5852L129.232 41.1932C129.542 41.2765 129.819 41.3125 130.061 41.3011C130.304 41.2898 130.518 41.1989 130.703 41.0284C130.893 40.858 131.059 40.5795 131.203 40.1932L131.413 39.6136L128.22 30.7727H130.038L132.249 37.5455H132.339L134.55 30.7727H136.374L132.777 40.6648C132.61 41.1193 132.398 41.5038 132.141 41.8182C131.883 42.1364 131.576 42.375 131.22 42.5341C130.864 42.6932 130.451 42.7727 129.982 42.7727Z" fill="white"/>
<defs>
<clipPath id="clip0_166_6939">
<rect width="22" height="24" fill="white" transform="translate(16 16)"/>
</clipPath>
</defs>
</svg>
