<svg width="35" height="47" viewBox="0 0 35 47" fill="none" xmlns="http://www.w3.org/2000/svg">
<path d="M31.9158 41.7068C31.4364 40.6111 30.8201 40.6796 30.6146 40.8165H30.3407C30.3407 40.8165 30.2722 40.6796 30.3407 40.6111C30.4092 40.3371 30.3407 40.2002 30.3407 40.0632C29.9298 39.5838 28.6286 39.6523 28.0807 39.7208C23.4238 40.2002 19.5202 40.3371 16.3699 40.3371C10.6857 40.3371 7.60395 39.8578 7.05607 39.7208C6.57668 39.7208 5.13852 39.5838 4.72762 40.0632C4.59065 40.2002 4.59065 40.4056 4.72762 40.6111V40.8165C4.72762 40.8165 4.59064 40.8165 4.45367 40.8165C4.24822 40.8165 3.63187 40.6111 3.15248 41.7068C3.15248 41.7068 3.15248 41.7068 3.08399 41.7068C3.08399 41.7068 2.94703 41.8438 2.81006 41.8438H2.87854C2.94702 41.8438 3.01551 41.9808 3.01551 42.1177C3.01551 42.2547 3.01551 42.8711 3.97429 43.4189C4.04277 43.4189 4.11126 43.6244 4.04278 43.6929C4.04278 43.6929 3.90581 44.0353 4.04278 44.3092C4.11126 44.5147 4.31671 44.6516 4.65913 44.7201C4.72761 44.7201 4.86458 44.7201 4.93306 44.7201C6.37123 45.131 8.97363 45.8844 17.5341 45.8844C26.0947 45.8844 28.7655 45.131 30.1352 44.7201C30.2722 44.7201 30.3407 44.7201 30.4092 44.7201C30.7516 44.7201 30.957 44.4462 31.0255 44.3092C31.1625 44.0353 31.0255 43.7614 31.0255 43.6929C31.0255 43.5559 31.0255 43.4874 31.094 43.4189C32.0528 42.8026 32.0528 42.2547 32.0528 42.1177C32.0528 41.9808 32.0528 41.9123 32.1897 41.9123H32.2582C32.1213 41.9123 32.0528 41.7753 31.9843 41.7068V41.5699L31.9158 41.7068Z" fill="white"/>
<path d="M32.7378 41.7067C32.3954 41.7067 32.3269 41.5698 32.2584 41.5698C31.779 40.474 31.0942 40.4055 30.7517 40.4055C30.7517 40.1316 30.7517 39.9261 30.5463 39.7207C29.9299 39.0358 28.0809 39.2413 27.8754 39.2413C13.9046 40.611 6.98775 39.2413 6.91927 39.2413C6.50836 39.2413 4.86474 39.0358 4.31687 39.7207C4.1799 39.9261 4.11141 40.1316 4.11141 40.4055C3.70051 40.4055 3.08415 40.4055 2.60476 41.5698C2.60476 41.5698 2.4678 41.5698 2.12538 41.7067C2.05689 41.7067 1.91992 41.7067 1.91992 41.9122C1.91992 42.1176 1.91992 42.1176 2.05689 42.1861L2.39931 42.3231C2.39931 42.597 2.53628 43.2134 3.42657 43.8297C3.42657 44.0352 3.2896 44.3091 3.42657 44.6515C3.56354 44.9255 3.83748 45.1309 4.31687 45.2679H4.38535C4.45384 45.2679 4.5908 45.2679 4.65929 45.2679C6.09745 45.6788 8.69986 46.4321 17.3973 46.4321C26.0948 46.4321 28.6972 45.6788 30.1354 45.2679C30.2724 45.2679 30.3408 45.2679 30.4093 45.2679H30.4778C30.8887 45.1309 31.2311 44.9255 31.3681 44.6515C31.5051 44.3091 31.4366 44.0352 31.3681 43.8297C32.1899 43.2819 32.3269 42.6655 32.3954 42.3231L32.7378 42.1861C32.8748 42.1861 32.8748 42.0491 32.8748 41.9122C32.8748 41.7752 32.7378 41.7067 32.6693 41.6382L32.7378 41.7067ZM32.1899 42.0491C32.1214 42.0491 32.0529 42.1861 32.0529 42.2546C32.0529 42.3916 32.0529 43.0079 31.0942 43.5558C31.0257 43.5558 30.9572 43.7612 31.0257 43.8297C31.0257 43.8297 31.1626 44.1721 31.0257 44.4461C30.9572 44.6515 30.7517 44.7885 30.4093 44.857C30.3408 44.857 30.2039 44.857 30.1354 44.857C28.6972 45.2679 26.0948 46.0212 17.5343 46.0212C8.97379 46.0212 6.3029 45.2679 4.93322 44.857C4.79625 44.857 4.72777 44.857 4.65929 44.857C4.31687 44.857 4.11142 44.5831 4.04293 44.4461C3.90597 44.1721 4.04293 43.8982 4.04293 43.8297C4.04293 43.6928 4.04293 43.6243 3.97445 43.5558C3.01567 42.9394 3.01567 42.3916 3.01567 42.2546C3.01567 42.1176 3.01566 42.0491 2.8787 42.0491H2.81022C2.94719 42.0491 3.01567 41.9122 3.08415 41.8437H3.15264C3.63203 40.6795 4.24838 40.7479 4.45383 40.8849H4.72778C4.72778 40.8849 4.79626 40.7479 4.72778 40.6795C4.65929 40.4055 4.72778 40.2686 4.72778 40.1316C5.13868 39.6522 6.50836 39.7207 7.05623 39.7892C7.60411 39.9261 10.7544 40.4055 16.3701 40.4055C21.9858 40.4055 23.3555 40.2686 28.0809 39.7892C28.6287 39.7892 29.9984 39.6522 30.3408 40.1316C30.4778 40.2686 30.4778 40.474 30.3408 40.6795V40.8849C30.3408 40.8849 30.4778 40.8849 30.6148 40.8849C30.8202 40.8849 31.4366 40.6795 31.916 41.7752C31.916 41.7752 31.916 41.7752 31.9845 41.7752C31.9845 41.7752 32.1214 41.9122 32.2584 41.9122H32.1214L32.1899 42.0491Z" fill="#C5923A"/>
<path d="M17.1918 6.64307V9.1085H16.096L15.7536 9.65637C15.7536 9.65637 13.4936 11.6424 9.86399 10.2042C9.86399 10.2042 9.17914 9.99879 8.22036 9.38243C8.22036 9.38243 5.07009 7.39639 2.81012 8.2182C2.81012 8.2182 1.64589 8.69759 1.30347 10.2727C1.30347 10.2727 1.16649 11.2315 1.16649 12.5327L0.00226375 38.6252V39.5155C0.00226375 39.5155 -0.0662183 39.9264 0.550139 39.3785L9.24762 31.5713L7.46704 38.0088L6.98764 39.5839L16.37 40.6797H18.6299L28.0123 39.5839L27.5329 38.0088L25.7523 31.5713L34.4498 39.3785C35.0661 39.9264 34.9977 39.5155 34.9977 39.5155V38.6252L33.8334 12.5327C33.8334 11.2315 33.6965 10.2727 33.6965 10.2727C33.4225 8.69759 32.1898 8.2182 32.1898 8.2182C29.9298 7.46488 26.7796 9.38243 26.7796 9.38243C25.8208 9.99879 25.1359 10.2042 25.1359 10.2042C21.5063 11.6424 19.2463 9.65637 19.2463 9.65637L18.9039 9.1085H17.8081V6.64307" fill="#C5923A"/>
<path d="M16.096 29.106C16.096 29.106 15.7536 28.8321 15.2742 28.2842L14.5894 29.106L15.4797 31.7769L16.096 29.0375V29.106Z" fill="white"/>
<path d="M13.0823 27.2567L13.7671 26.6403C13.4932 26.2979 13.2192 25.887 12.9453 25.4761L13.0823 27.2567Z" fill="white"/>
<path d="M13.1509 27.599L13.4248 30.2699L15.1369 28.1469C14.7945 27.8045 14.3836 27.3251 13.9727 26.8457L13.1509 27.599Z" fill="white"/>
<path d="M12.877 27.4621L12.6716 24.9282C12.3976 24.5172 12.1922 24.1063 11.9183 23.627L10.6855 27.9415L11.1649 29.1057L12.877 27.5305V27.4621Z" fill="white"/>
<path d="M14.4525 36.8445L15.4113 32.3931L13.9731 34.5161L14.4525 36.7761V36.8445Z" fill="white"/>
<path d="M10.1376 36.2966L11.6443 34.1051L12.3291 36.4335L13.6303 34.516L13.0139 31.7766L11.5073 33.5572L10.9594 31.3657L9.11035 33.1463L10.0691 36.3651H10.1376V36.2966Z" fill="white"/>
<path d="M9.24756 32.5986L11.1651 30.7495L11.713 32.941L13.2196 31.1604L13.9045 34.1737L15.3427 32.0507L14.4524 29.3798L13.2196 30.8865L12.9457 27.8047L11.0966 29.5168L10.6172 28.3526L9.38452 32.5986H9.24756Z" fill="white"/>
<path d="M18.835 29.1059L19.4513 31.8452L20.3416 29.1743L19.6568 28.3525C19.1089 28.8319 18.835 29.1743 18.835 29.1743V29.1059Z" fill="white"/>
<path d="M21.8484 27.2567L21.9854 25.4761C21.7114 25.887 21.4375 26.2979 21.1636 26.6403L21.8484 27.2567Z" fill="white"/>
<path d="M19.8628 28.1469L21.5749 30.2699L21.8488 27.599L21.027 26.8457C20.6161 27.3936 20.2052 27.8045 19.8628 28.1469Z" fill="white"/>
<path d="M23.0813 23.6271C22.8759 24.1065 22.6019 24.5174 22.328 24.9283L22.1226 27.4622L23.8347 29.0373L24.314 27.8731L23.0813 23.5586V23.6271Z" fill="white"/>
<path d="M20.5476 36.8444L21.027 34.5844L19.5889 32.4614L20.5476 36.9129V36.8444Z" fill="white"/>
<path d="M21.9166 31.7084L21.3003 34.4478L22.6015 36.3653L23.2863 34.0369L24.793 36.2283L25.7518 33.0096L23.9027 31.229L23.3548 33.4205L21.8482 31.6399H21.9166V31.7084Z" fill="white"/>
<path d="M25.9578 33.4888L25.0675 36.5706L26.5056 38.6251L26.3002 38.7621L24.999 36.8446L24.3826 39.036L24.1087 39.6524L22.9444 37.8718L22.3966 39.3785H22.1226L22.876 37.2555L24.0402 39.036V38.8991L24.7935 36.5021L23.4238 34.5846L22.6705 36.913L21.1639 34.79L20.616 37.3924L20.9584 39.036V39.447C21.0269 39.447 20.753 39.447 20.753 39.447V39.1045C20.6845 39.1045 20.4105 38.0773 20.4105 38.0773L19.8627 38.6251L18.9039 37.9403L18.0821 31.8452L18.2875 37.9403L17.4657 39.036L16.6439 37.9403L16.8494 31.8452L16.0276 37.9403L15.0688 38.6251L14.4524 38.0773L14.1785 39.1045V39.447H13.8361V39.036C13.9045 39.036 14.247 37.3924 14.247 37.3924L13.6991 34.79L12.1924 36.913L11.5076 34.5846L10.1379 36.5021L10.8228 38.8991V39.036L12.0555 37.2555L12.8088 39.2415H12.6033L11.987 37.8033L10.8228 39.5839L10.5488 38.9676L9.93246 36.7761L8.63127 38.6936L8.42581 38.5567L9.86398 36.5021L8.97369 33.4203L7.604 38.0773V39.173L15.8906 40.1318H19.0409L27.3274 39.173V38.0773L25.9578 33.4203V33.4888Z" fill="white"/>
<path d="M21.7802 30.8865L20.5475 29.3798L19.6572 32.0507L21.1639 34.1737L21.8487 31.1604L23.3554 32.941L23.9033 30.7495L25.8208 32.5986L24.5881 28.3526L24.1087 29.5168L22.2596 27.8047L21.9857 30.8865H21.7802Z" fill="white"/>
<path d="M9.59033 30.4754L10.4121 27.736L10.6176 20.2712C10.3437 19.3809 10.2067 18.4906 10.0697 17.7373L9.59033 30.4754Z" fill="white"/>
<path d="M24.5194 27.736L25.3412 30.4754L24.8618 17.7373C24.7249 18.4906 24.5879 19.3809 24.314 20.2712L24.5194 27.736Z" fill="white"/>
<path d="M33.4221 11.0258C33.2852 9.03978 32.1894 8.5604 31.984 8.49191C29.7925 8.01252 26.9846 9.72463 26.9846 9.72463C26.0259 10.2725 25.4095 10.5464 25.4095 10.5464C21.9168 11.9846 19.7253 9.99856 19.7253 9.99856L19.3829 9.45069H15.6848L15.3423 9.99856C15.3423 9.99856 13.1508 11.9161 9.65815 10.5464C9.65815 10.5464 8.97331 10.341 8.08301 9.72463C8.08301 9.72463 5.27516 7.94404 3.08367 8.49191C2.87822 8.5604 1.78248 9.03978 1.64551 11.0258L3.42609 10.204L2.33035 37.4607L2.9467 36.9128L4.04245 10.6834L5.82303 12.2585L4.93274 35.1322L5.68607 34.4474L6.71333 12.9434L8.01452 14.0391L7.32968 33.0092L8.21998 32.1874L8.90482 14.3131L10.0006 14.9294V14.6555C15.7532 14.8609 17.6023 12.601 17.6023 12.601C17.6023 12.601 19.5199 14.9294 25.204 14.6555V14.9294L26.2998 14.3131L26.9846 32.1874L27.8749 33.0092L27.1901 14.0391L28.4913 12.9434L29.5186 34.4474L30.2719 35.1322L29.3816 12.2585L31.1622 10.6834L32.2579 36.9128L32.8743 37.4607L31.7785 10.2725L33.5591 11.0943H33.4221V11.0258Z" fill="white"/>
<path d="M24.6567 15.0666C19.2465 15.2721 17.4659 13.0806 17.4659 13.0806C17.4659 13.0806 15.6853 15.2721 10.275 15.0666C10.275 15.0666 9.72716 24.1065 17.4659 29.5168C25.2046 24.1065 24.6567 15.0666 24.6567 15.0666Z" fill="white"/>
<path d="M24.3822 15.3403C19.2459 15.5457 17.5338 13.4912 17.5338 13.4912C17.5338 13.4912 15.8217 15.5457 10.6854 15.3403C10.6854 15.3403 10.1375 24.0378 17.5338 29.2426C24.9301 24.0378 24.3822 15.3403 24.3822 15.3403Z" fill="#C5923A"/>
<path d="M23.9716 15.6829C19.1092 15.8884 17.4656 13.9023 17.4656 13.9023C17.4656 13.9023 15.822 15.8884 10.9596 15.6829C10.9596 15.6829 10.4802 23.901 17.4656 28.8319C24.451 23.901 23.9716 15.6829 23.9716 15.6829Z" fill="#020100"/>
<path d="M10.9596 15.6828C10.9596 15.6828 10.6172 21.5724 14.7263 26.3663V15.3403C13.7675 15.5458 12.5348 15.7512 10.9596 15.6828Z" fill="#D6212A"/>
<path d="M17.4654 28.8319C18.5612 28.0786 19.4515 27.1883 20.2048 26.3665V15.3405C18.2188 14.7926 17.4654 13.9023 17.4654 13.9023C17.4654 13.9023 16.7121 14.7926 14.7261 15.3405V26.3665C15.4794 27.2568 16.3697 28.0786 17.4654 28.8319Z" fill="white"/>
<path d="M5.61835 37.9402C5.61835 37.9402 3.76928 37.9402 4.18019 40.1317C4.18019 40.1317 4.59109 39.7892 5.61835 39.5838C5.61835 39.5838 7.87832 40.1316 9.7274 40.4056C9.7274 40.4056 9.7274 40.6795 10.0013 40.885C10.0013 40.885 10.4807 41.2959 10.4807 41.7753C10.4807 41.7753 10.4807 41.2959 11.0286 41.0219C11.0286 41.0219 11.234 40.885 11.3025 40.748C11.3025 40.748 12.7407 40.9535 15.617 40.748C15.617 40.748 15.617 40.9535 15.891 41.0904C15.891 41.0904 16.6443 41.4328 16.6443 41.9122C16.6443 41.9122 17.2606 41.5698 17.2606 40.4741C17.2606 40.4741 17.1922 39.5153 16.3019 39.4468C16.3019 39.4468 16.0279 39.0359 15.5485 39.0359C15.5485 39.0359 14.8637 39.2414 10.6862 38.8305C10.6862 38.8305 9.3165 38.6935 6.44017 37.8717C6.44017 37.8717 6.02925 37.6662 5.61835 38.0086V37.9402Z" fill="#C5923A"/>
<path d="M10.5491 41.2276C10.5491 41.2276 10.5491 41.0906 10.8915 40.8167C10.8915 40.8167 11.1654 40.5428 11.2339 40.1319C11.2339 40.1319 11.3024 39.5155 10.7545 39.3101C10.7545 39.3101 10.2751 39.3101 10.0697 39.7894C10.0697 39.7894 9.9327 39.9949 10.0697 40.3373C10.0697 40.3373 10.0697 40.5428 10.2751 40.8167C10.2751 40.8167 10.5491 41.0906 10.6175 41.2961H10.5491V41.2276Z" fill="white"/>
<path d="M16.4384 39.7206C16.4384 39.7206 16.4384 39.9945 16.0275 40.2685C16.0275 40.2685 15.6166 40.6794 15.959 40.8848C15.959 40.8848 16.5069 41.2273 16.7123 41.6382C16.7123 41.6382 17.3972 40.6794 16.8493 39.9261C16.8493 39.9261 16.5069 39.5152 16.4384 39.7206Z" fill="white"/>
<path d="M5.41263 38.2827V39.036C5.41263 39.036 5.4811 39.3099 5.13868 39.3784C5.13868 39.3784 4.52233 39.5839 4.31688 39.7893C4.31688 39.7893 4.11142 38.6936 5.00172 38.2142C5.00172 38.2142 5.34414 38.0772 5.34414 38.2142L5.41263 38.2827Z" fill="white"/>
<path d="M16.0277 39.5836C16.0277 39.5836 15.8907 39.4467 15.7538 39.3782C15.7538 39.3782 15.7538 39.3782 15.2744 39.3782C15.2744 39.3782 10.6175 39.5836 6.50841 38.214C6.50841 38.214 6.09751 38.0085 5.82357 38.3509C5.82357 38.3509 5.48115 38.7618 5.82357 39.3782C5.82357 39.3782 5.96054 39.5152 6.16599 39.5836C6.16599 39.5836 6.91932 39.8576 9.72717 40.4055C9.72717 40.4055 9.79566 39.3097 10.686 39.3097C10.686 39.3097 11.5078 39.3097 11.4393 40.6794C11.4393 40.6794 13.1514 40.8164 15.3429 40.6794C15.3429 40.6794 15.5483 40.6794 15.6853 40.4055C15.6853 40.4055 15.8907 40.063 16.1647 39.9261C16.1647 39.9261 16.3017 39.7891 16.0277 39.6521V39.5836ZM7.05629 38.8988C6.85084 38.7618 6.37145 38.6933 6.37145 38.6933H6.16599C5.96054 38.5564 6.16599 38.4879 6.16599 38.4879C7.26174 38.6249 7.4672 38.9673 7.4672 38.9673C7.4672 39.1727 7.05629 38.9673 7.05629 38.9673V38.8988ZM9.5902 39.5836C9.45323 39.5836 9.24778 39.5836 9.24778 39.5836C8.90536 39.5836 8.56294 39.3782 8.56294 39.3782H8.22052C8.01507 39.2412 8.01506 39.1727 8.01506 39.1727C8.56294 39.0358 9.1793 39.3097 9.1793 39.3097C9.72718 39.5152 9.65869 39.6521 9.65869 39.6521L9.5902 39.5836ZM13.2199 39.9945H11.7132C11.7132 39.5836 12.535 39.6521 12.535 39.6521C13.0144 39.6521 13.2199 39.9261 13.2199 39.9945ZM15.2059 40.063C15.2059 40.063 14.3841 40.063 14.1102 40.2C14.1102 40.2 13.7677 40.337 13.7677 40.063C13.7677 40.063 13.9047 39.8576 14.3841 39.8576H15.3429C15.3429 39.8576 15.5483 39.9945 15.2059 40.063Z" fill="white"/>
<path d="M29.382 37.9402C29.382 37.9402 31.2996 37.9402 30.8202 40.1317C30.8202 40.1317 30.4093 39.7892 29.382 39.5838C29.382 39.5838 27.1221 40.1316 25.273 40.4056C25.273 40.4056 25.273 40.6795 24.9991 40.885C24.9991 40.885 24.5197 41.2959 24.5197 41.7753C24.5197 41.7753 24.5197 41.2959 23.9718 41.0219C23.9718 41.0219 23.7663 40.885 23.6979 40.748C23.6979 40.748 22.2597 40.9535 19.3834 40.748C19.3834 40.748 19.3834 40.9535 19.1094 41.0904C19.1094 41.0904 18.3561 41.4328 18.3561 41.9122C18.3561 41.9122 17.7397 41.5698 17.7397 40.4741C17.7397 40.4741 17.8082 39.5153 18.6985 39.4468C18.6985 39.4468 18.9725 39.0359 19.4518 39.0359C19.4518 39.0359 20.1367 39.2414 24.3827 38.8305C24.3827 38.8305 25.7524 38.6935 28.6287 37.8717C28.6287 37.8717 29.0396 37.6662 29.4505 38.0086H29.382V37.9402Z" fill="#C5923A"/>
<path d="M24.4513 41.2276C24.4513 41.2276 24.4513 41.0906 24.1088 40.8167C24.1088 40.8167 23.8349 40.5428 23.7664 40.1319C23.7664 40.1319 23.6979 39.5155 24.2458 39.3101C24.2458 39.3101 24.7937 39.3101 24.9306 39.7894C24.9306 39.7894 25.0676 39.9949 24.9306 40.3373C24.9306 40.3373 24.9306 40.5428 24.7252 40.8167C24.7252 40.8167 24.4513 41.0906 24.3828 41.2961H24.4513V41.2276Z" fill="white"/>
<path d="M18.5613 39.7206C18.5613 39.7206 18.5613 39.9945 18.9722 40.2685C18.9722 40.2685 19.3831 40.6794 19.0407 40.8848C19.0407 40.8848 18.4928 41.2273 18.2874 41.6382C18.2874 41.6382 17.6026 40.6794 18.1504 39.9261C18.1504 39.9261 18.4929 39.5152 18.5613 39.7206Z" fill="white"/>
<path d="M29.5876 38.2827V39.036C29.5876 39.036 29.5191 39.3099 29.8616 39.3784C29.8616 39.3784 30.4779 39.5839 30.6834 39.7893C30.6834 39.7893 30.8888 38.6936 29.9985 38.2142C29.9985 38.2142 29.6561 38.0772 29.6561 38.2142L29.5876 38.2827Z" fill="white"/>
<path d="M18.835 39.8577C19.109 39.9947 19.3144 40.3371 19.3144 40.3371C19.4514 40.611 19.6568 40.611 19.6568 40.611H23.5604C23.492 39.3783 24.3138 39.2413 24.3138 39.2413C25.204 39.2413 25.2725 40.3371 25.2725 40.3371C28.0804 39.8577 28.8337 39.5153 28.8337 39.5153C29.0392 39.5153 29.1761 39.3098 29.1761 39.3098C29.5186 38.762 29.1761 38.2826 29.1761 38.2826C28.9022 37.9401 28.4913 38.1456 28.4913 38.1456C24.3822 39.5838 19.7253 39.3098 19.7253 39.3098C19.2459 39.3098 19.2459 39.3098 19.2459 39.3098C19.109 39.3098 18.972 39.5153 18.972 39.5153C18.6981 39.6522 18.835 39.7892 18.835 39.7892V39.8577ZM27.5325 38.8989C27.5325 38.8989 27.738 38.5565 28.8337 38.4195C28.8337 38.4195 29.0392 38.4195 28.8337 38.625H28.6283C28.6283 38.625 28.2174 38.762 27.9434 38.8989C27.9434 38.8989 27.5325 39.1044 27.5325 38.8989ZM25.8204 39.2413C25.8204 39.2413 26.4368 38.9674 26.9846 39.1044C26.9846 39.1044 26.9846 39.1044 26.7792 39.3098H26.4368C26.4368 39.3098 26.0259 39.3098 25.7519 39.5153C25.7519 39.5153 25.5465 39.5153 25.4095 39.5153C25.4095 39.5153 25.2725 39.3098 25.8889 39.1729L25.8204 39.2413ZM21.7798 39.9947C21.7798 39.9947 21.9853 39.6523 22.4647 39.6523C22.4647 39.6523 23.218 39.6523 23.2865 39.9947H21.7798ZM19.6568 39.8577H20.6156C21.095 39.8577 21.232 40.0632 21.232 40.0632C21.232 40.2686 20.8895 40.2001 20.8895 40.2001C20.6156 40.2001 19.7938 40.0632 19.7938 40.0632C19.4514 40.0632 19.6568 39.8577 19.6568 39.8577Z" fill="white"/>
<path d="M15.0686 2.94482C15.0686 2.94482 16.1643 4.58844 14.1783 8.76597C14.1783 8.76597 13.8359 9.51929 12.2607 11.7793C12.2607 11.7793 13.288 11.9162 14.5892 11.0259L14.3153 12.3271C14.3153 12.3271 14.9316 12.3271 16.3698 11.0259L17.4655 12.1217L18.4243 11.0259C18.4243 11.0259 19.3146 11.8478 20.6158 12.0532C20.6158 12.0532 20.7528 11.7793 20.6158 11.2999C20.6158 11.2999 21.5061 11.8478 22.6018 11.6423C22.6018 11.6423 21.8485 11.2999 21.1637 9.38233C21.1637 9.38233 20.8213 8.49203 20.6843 7.12235C20.6843 7.12235 20.5473 5.95812 20.6843 4.51995C20.6843 4.51995 20.8213 1.57514 19.4516 0.82181C19.4516 0.82181 18.4928 0.273937 16.7807 0C16.7807 0 16.0959 -4.08197e-08 16.0274 0.410905C16.0274 0.410905 15.0001 0.136968 14.0413 0.205452C14.0413 0.205452 12.8086 0.0684842 12.7401 1.64362C12.7401 1.64362 12.7401 2.19149 12.9456 2.32846C12.9456 2.32846 13.0825 2.32846 13.3565 2.19149C13.3565 2.19149 13.425 2.05452 13.9044 2.05452C13.9044 2.05452 14.5207 2.05452 15.0686 2.94482Z" fill="#C5923A"/>
<path d="M17.1915 1.84914C17.397 1.84914 17.534 1.71217 17.534 1.57521C17.534 1.43824 17.397 1.30127 17.1915 1.30127C16.9861 1.30127 16.8491 1.43824 16.8491 1.57521C16.8491 1.71217 16.9861 1.84914 17.1915 1.84914Z" fill="white"/>
<path d="M19.9998 10.8207C19.7943 10.4098 19.4519 9.65645 19.3149 8.5607L18.9725 6.02679H19.2465L19.5889 8.49222C19.7259 9.79341 20.2052 10.6152 20.3422 10.8892C20.5477 11.0946 20.9586 11.437 21.9858 11.5055C21.9858 11.5055 20.9586 10.2728 20.5477 7.94434C20.5477 7.94434 20.3422 7.19102 20.3422 5.82133C20.3422 5.82133 20.5477 3.62984 20.2052 2.5341C20.2052 2.5341 19.9998 1.6438 19.4519 1.57532H18.8356C18.6301 1.57532 18.2192 1.57532 18.0138 1.78077C18.0138 1.78077 17.8083 1.78077 17.6713 1.98622C17.6713 1.98622 17.6028 1.98622 17.6028 2.19168C17.6028 2.19168 17.6029 2.32864 17.3974 2.32864C17.3974 2.32864 17.1235 2.32864 17.055 2.19168C17.055 2.19168 17.055 1.84925 16.5756 1.91774C16.5756 1.91774 16.4386 1.91774 15.8907 1.57532C15.8907 1.57532 15.1374 0.890477 14.5211 0.821993C14.5211 0.821993 14.0417 0.753509 13.5623 0.958961C13.5623 0.958961 13.2199 1.09593 13.1514 1.43835C13.1514 1.43835 13.0829 1.78077 13.1514 1.98622C13.1514 1.98622 13.1514 2.19168 13.2884 1.98622C13.2884 1.98622 13.6308 1.36987 13.9047 1.30138C13.9047 1.30138 14.3156 1.16441 14.658 1.30138C14.658 1.30138 14.8635 1.30138 16.0277 2.32864C16.0277 2.32864 16.2332 2.46561 16.5756 3.01348C16.5756 3.01348 16.781 3.21894 16.4386 3.15045C16.4386 3.15045 15.5483 2.945 15.6168 3.15045C15.6168 3.15045 16.0962 4.93104 15.0689 7.39647C15.0689 7.39647 14.658 8.90312 12.8774 11.3001C12.8774 11.3001 13.4938 11.3001 14.795 10.5467C14.795 10.5467 15.2059 10.3413 15.6853 8.90312C15.6853 8.90312 16.0962 7.67041 16.4386 5.47891H16.7126C16.4386 7.67041 15.9592 8.9716 15.9592 8.9716C15.5483 10.1358 15.2059 10.5467 15.0005 10.6837L14.795 11.711C14.795 11.711 15.7538 11.3001 16.5071 10.4783C16.6441 10.2728 16.8495 9.72493 17.055 8.49222L17.3289 5.27346H17.6028L17.3289 8.5607C17.1919 9.79341 16.918 10.4098 16.781 10.6837L17.6028 11.574L18.3562 10.7522L18.1507 5.5474H18.4247L18.6301 10.6837C18.7671 10.8207 19.3149 11.3685 20.5477 11.6425C20.5477 11.6425 20.5477 11.437 20.2052 10.7522V10.6152L19.9998 10.7522V10.8207Z" fill="white"/>
<path d="M8.42578 43.4189V43.282C8.49427 43.008 8.56275 42.6656 8.63124 42.3917V42.1862C8.63124 42.0949 8.58558 42.0492 8.49427 42.0492H8.42578C8.3573 42.0492 8.22033 42.1862 8.08336 42.1862C7.94639 42.1862 7.94639 42.3232 8.01487 42.3917C8.15184 42.5286 8.08336 42.6656 8.01487 42.8026C8.01487 42.9395 7.87791 43.008 7.74094 43.008C7.60397 43.008 7.467 43.008 7.33003 43.008H7.26156C7.26156 43.008 7.19307 43.008 7.26156 42.8711C7.33004 42.6656 7.33004 42.4601 7.39852 42.3232C7.39852 42.1862 7.39853 42.0492 7.46701 41.9123V41.7753H7.33003C7.19306 41.7753 7.0561 41.9123 6.91913 41.9808C6.85065 41.9808 6.78217 41.9808 6.91913 42.1177C6.98762 42.1177 6.98762 42.2547 6.91913 42.3917V42.5971C6.91913 42.7341 6.85064 42.8026 6.64519 42.8026H6.37126V42.6656C6.37126 42.5286 6.37126 42.4601 6.43975 42.3232C6.50823 41.9808 6.6452 41.6383 6.78217 41.2959V40.885C6.78217 40.885 6.78216 40.748 6.71368 40.748C6.57671 40.748 6.43974 40.885 6.30277 40.885C6.21146 40.885 6.21146 40.9307 6.30277 41.022C6.37126 41.159 6.37126 41.2274 6.30277 41.3644C6.30277 41.5699 6.23429 41.7753 6.1658 41.9123C6.1658 41.9123 6.09732 42.0492 6.02884 42.0492C5.89187 42.0492 5.7549 42.0492 5.61793 42.1862C5.54945 42.1862 5.48097 42.1862 5.41249 42.3232C5.344 42.4601 5.27552 42.5971 5.20703 42.7341C5.20703 42.8711 5.20702 42.9395 5.27551 43.008C5.27551 43.008 5.41248 43.008 5.48096 43.008C5.54945 43.008 5.61793 43.008 5.68642 43.008C5.7549 43.008 5.82338 43.008 5.96035 43.008C6.02883 43.008 6.16581 43.008 6.23429 43.008C6.50823 43.008 6.78217 43.145 7.12459 43.282C7.46701 43.282 7.87791 43.4189 8.22033 43.5559C8.3573 43.5559 8.42579 43.5559 8.49427 43.4189V43.282L8.42578 43.4189ZM5.89187 42.3917H5.75491C5.75491 42.3917 5.82339 42.3917 5.89187 42.2547H6.02884C6.02884 42.2547 6.02883 42.3917 5.96035 42.3917H5.89187Z" fill="#C5923A"/>
<path d="M29.7244 42.6657C29.7244 42.6657 29.5875 42.6657 29.5875 42.5288C29.519 42.3918 29.4505 42.3918 29.3135 42.5288C29.245 42.5288 29.1765 42.6657 29.1081 42.6657C28.9026 42.6657 28.6972 42.6657 28.6287 42.4603C28.4917 42.1863 28.4917 41.9124 28.4232 41.6385C28.4232 41.433 28.4232 41.2276 28.2863 41.0906C28.2863 40.8851 28.0808 40.7482 27.9438 40.6797C27.7384 40.6797 27.5329 40.6797 27.259 40.6797C27.122 40.6797 26.9851 40.6797 26.8481 40.8167C26.7111 40.8167 26.7111 40.9536 26.8481 41.0221C26.8481 41.0221 26.9166 41.1591 26.9851 41.1591C27.0535 41.296 27.122 41.296 27.259 41.1591C27.396 41.1591 27.4644 40.9536 27.6699 41.0221C27.8069 41.0221 27.9438 41.2276 28.0123 41.433C28.0808 41.7069 28.0808 42.0494 28.1493 42.3233C28.1493 42.4603 28.2178 42.5972 28.2863 42.7342C28.2863 42.8255 28.2634 42.894 28.2178 42.9397C28.0808 42.9397 27.9438 42.9397 27.8753 42.8027C27.7384 42.6657 27.6014 42.6657 27.4644 42.5972H27.396C27.259 42.7342 27.0535 42.8027 26.9851 43.0766C26.9851 43.0766 26.9851 43.0766 26.9166 43.2136C26.7796 43.2136 26.6426 43.2136 26.5742 43.0766C26.4372 42.7342 26.1632 42.5288 25.8208 42.5288C25.4784 42.5288 25.6839 42.5288 25.6839 42.3918C25.6839 42.2548 25.6839 42.0494 25.5469 41.9124C25.5469 41.7754 25.4099 41.7754 25.273 41.9124C25.273 41.9124 25.136 42.0494 25.0675 42.1863V42.3918C25.0675 42.3918 25.136 42.3918 25.2045 42.5288V42.7342C24.862 42.9397 24.7251 43.2136 24.7251 43.556C24.7251 43.8984 24.7251 43.7615 24.5196 43.7615C24.3142 43.7615 24.3827 43.7615 24.3827 43.6245C24.3827 43.4875 24.3827 43.3506 24.3142 43.2136C24.3142 43.0766 24.1772 43.0081 24.1087 43.0766C23.9718 43.0766 23.7663 43.2136 23.6293 43.3506C23.4924 43.556 23.2869 43.693 23.3554 43.9669V44.1724C23.3554 44.3093 23.4239 44.3778 23.5609 44.3778H23.9033C23.9946 44.3778 24.0402 44.4235 24.0402 44.5148C24.0402 44.5148 24.0402 44.5148 23.9718 44.6518C23.9718 44.6518 23.8348 44.7887 23.7663 44.7887C23.6978 44.7887 23.6293 44.7887 23.4924 44.9257C23.4924 45.0627 23.4924 44.9257 23.5609 44.9257H23.8348C24.1772 44.9257 24.4511 44.6518 24.4511 44.3093C24.4511 44.3093 24.4511 44.1724 24.5196 44.1724C24.7936 44.1724 25.136 44.0354 25.4099 44.0354C25.6839 44.0354 25.5469 44.0354 25.5469 44.0354C25.6154 44.2409 25.8208 44.3778 26.0263 44.4463H26.2317C26.4372 44.3093 26.6426 44.1039 26.6426 43.7615C26.7796 43.7615 26.9166 43.7615 26.9851 43.7615C26.9851 43.7615 27.0535 43.7615 27.122 43.7615H27.3275C27.6014 43.7615 27.8069 43.6245 27.9438 43.4191C27.9438 43.4191 27.9438 43.4191 28.0808 43.2821C28.2863 43.2821 28.5602 43.1451 28.8341 43.0766C29.1081 43.0766 29.4505 42.9397 29.7244 42.8027H29.8614C29.8614 42.8027 29.8614 42.6657 29.7244 42.6657ZM23.6978 43.7615H23.5609C23.5609 43.7615 23.6978 43.556 23.7663 43.556C23.8348 43.556 23.9033 43.556 23.9033 43.693C23.9033 43.83 23.8348 43.83 23.6978 43.83V43.7615ZM25.2045 43.556C25.1132 43.556 25.0447 43.5104 24.999 43.4191C24.999 43.2821 25.0675 43.1451 25.136 43.1451C25.2045 43.1451 25.273 43.2821 25.273 43.4191C25.273 43.556 25.2729 43.556 25.136 43.556H25.2045ZM25.8208 43.4191C25.8208 43.4191 25.6839 43.2136 25.6839 43.1451C25.6839 43.1451 25.6839 43.1451 25.8208 43.0081C25.9578 43.0081 26.1632 43.1451 26.1632 43.2821C26.1632 43.4191 25.9578 43.4191 25.8893 43.4191H25.8208ZM26.0948 43.9669H25.9578C25.9578 43.9669 26.0263 43.83 26.0948 43.83C26.1632 43.83 26.2317 43.83 26.2317 43.9669C26.2317 44.1039 26.2317 43.9669 26.0948 43.9669ZM27.5329 43.3506C27.5329 43.3506 27.396 43.4875 27.3275 43.3506C27.259 43.3506 27.1905 43.2136 27.1905 43.1451C27.1905 43.0766 27.3275 43.0081 27.396 43.0081C27.4644 43.0081 27.5329 43.0081 27.5329 43.0081V43.1451V43.3506Z" fill="#C5923A"/>
<path d="M18.6297 43.3504C18.5612 43.3504 18.4243 43.3504 18.3558 43.4873C18.0819 43.4873 17.8764 43.7613 17.8079 44.0352C17.8079 44.0352 17.8079 44.1722 17.671 44.1722C17.534 44.1722 17.534 44.1722 17.534 44.0352V43.7613C17.534 43.5558 17.534 43.4873 17.3285 43.4873C16.8491 43.4873 16.3698 43.4873 15.8904 43.4873H15.6849C15.411 43.4873 15.3425 43.4873 15.3425 43.1449C15.3425 43.0536 15.2968 42.9851 15.2055 42.9395C15.0686 42.9395 14.8631 43.0764 14.7946 43.1449V43.2819C14.9316 43.4873 14.8631 43.6928 14.7946 43.8982V44.0352C14.6577 44.0352 14.5207 44.0352 14.4522 43.8982C14.4522 43.8982 14.4522 43.7613 14.3837 43.6928C14.3837 43.5558 14.2467 43.4188 14.1783 43.2819H14.0413C13.9728 43.4188 13.8358 43.4873 13.7674 43.6243V43.7613C13.9043 43.8982 13.9728 44.0352 13.9728 44.1722C14.0413 44.3776 13.9728 44.5831 13.8358 44.7885C13.6989 44.9255 13.4934 44.994 13.288 44.994H13.0825H13.2195C13.5619 44.994 13.8358 44.994 14.1098 44.7885C14.1783 44.7885 14.2468 44.5831 14.3152 44.5146C14.3152 44.3776 14.4522 44.3091 14.5892 44.3091H15.0001C15.411 44.3091 15.8219 44.3091 16.1643 44.4461C16.2328 44.4461 16.3013 44.4461 16.3013 44.5831C16.3013 44.7885 16.5067 44.9255 16.7122 44.994C16.8491 44.994 16.9176 44.994 16.9861 44.994C17.1231 44.994 17.26 44.7885 17.26 44.5831C17.26 44.3776 17.2601 44.4461 17.397 44.4461H18.4928C18.6297 44.4461 18.6982 44.4461 18.6982 44.2407V44.1037C18.6982 43.8297 18.6297 43.6243 18.6297 43.3504C18.6297 43.0764 18.4928 43.1449 18.3558 43.2134H18.6297V43.3504ZM17.1231 44.5831C17.1231 44.6744 17.0774 44.72 16.9861 44.72C16.8491 44.72 16.8491 44.72 16.8491 44.5831V44.3776C16.8491 44.3776 16.8491 44.2407 16.7122 44.2407H15.411C15.411 44.2407 15.3425 44.2406 15.274 44.1037C15.274 44.1037 15.274 44.1037 15.3425 43.9667H16.9176C17.0546 43.9667 17.1231 43.9667 17.1231 44.1722V44.5831ZM18.5613 44.1037H18.4243H18.2873V43.9667C18.2873 43.9667 18.3558 43.9667 18.4243 43.9667C18.4243 43.9667 18.4928 44.1037 18.4243 44.1722L18.5613 44.0352V44.1037Z" fill="#C5923A"/>
<path d="M12.6715 41.5697C12.5346 41.5697 12.3976 41.7067 12.2606 41.7752C12.1922 41.7752 12.1922 41.9121 12.2606 41.9121C12.3976 41.9121 12.3976 42.1176 12.3976 42.2546V43.0079C12.3976 43.2818 12.3291 43.5558 12.2606 43.8297V44.1721C12.2606 44.1721 12.2606 44.3091 12.1237 44.3091C11.9867 44.3091 11.9867 44.3091 11.9867 44.1721V43.8982C11.9867 43.8982 11.9867 43.7612 11.8497 43.7612H11.5758C11.5073 43.7612 11.4388 43.7612 11.4388 43.5558C11.4388 43.3503 11.4388 43.4188 11.5758 43.4188H11.8497C12.0552 43.4188 12.0552 43.4188 12.0552 43.1448V43.0079C11.9867 42.8709 11.9182 42.8024 11.7813 42.7339C11.7813 42.7339 11.6443 42.597 11.7128 42.5285C11.7128 42.3915 11.7128 42.2546 11.5758 42.1176C11.5073 41.9806 11.3704 41.9806 11.2334 42.1176C11.0964 42.1176 10.9595 42.2546 10.891 42.3915C10.891 42.3915 10.754 42.5285 10.6855 42.5285H10.4801C10.3431 42.5285 10.2746 42.6655 10.2061 42.7339C10.0692 42.8709 10.2061 43.0079 10.3431 43.0079C10.4801 43.0079 10.5485 43.0079 10.617 43.1448C10.6855 43.1448 10.6855 43.1448 10.617 43.3503C10.4801 43.4873 10.4116 43.5557 10.2061 43.4873H10.0007C9.8637 43.4873 9.79522 43.4873 9.79522 43.2818V42.8709C9.79522 42.7339 9.79522 42.6655 9.65825 42.5285C9.65825 42.5285 9.52128 42.3915 9.4528 42.5285C9.4528 42.6655 9.31583 42.7339 9.24734 42.8024V43.0079C9.31583 43.1448 9.38431 43.2818 9.31583 43.4873C9.31583 43.7612 9.17886 43.9667 8.90492 43.9667H8.69947H8.5625C8.5625 43.9667 8.5625 43.9667 8.69947 44.1036H8.90492C9.17886 44.1036 9.4528 44.1036 9.65825 43.8297C9.65825 43.8297 9.79522 43.6927 9.8637 43.6927H10.4801C10.6855 43.6927 10.8225 43.6927 10.9594 43.5558C10.9594 43.5558 11.0964 43.5558 11.1649 43.5558C11.2334 43.5558 11.2334 43.5557 11.2334 43.6927C11.2334 43.8297 11.3019 43.8297 11.4388 43.8982H11.6443C11.7128 43.8982 11.7813 43.8982 11.7128 44.0351C11.7128 44.3091 11.8497 44.583 12.1237 44.6515C12.3291 44.6515 12.6031 44.5145 12.6715 44.3091C12.6715 44.1721 12.74 44.1036 12.74 43.9667C12.8085 43.4873 12.877 43.0764 12.9455 42.597V41.3643C12.9455 41.3643 12.9455 41.3643 12.8085 41.3643L12.6715 41.6382V41.5697ZM11.0964 43.0764C10.9594 43.0764 10.754 43.0764 10.617 42.9394C10.6855 42.9394 10.754 42.8024 10.891 42.7339C10.9595 42.7339 11.0279 42.7339 11.0279 42.7339C11.0279 42.7339 11.0279 42.8709 11.0964 42.9394V43.0764Z" fill="#C5923A"/>
<path d="M21.7116 43.6928V43.0765C21.7116 43.0765 21.5747 42.9395 21.5062 43.0765C21.3692 43.0765 21.3007 43.2134 21.2322 43.2819C21.1638 43.2819 21.1638 43.4189 21.2322 43.4874C21.3007 43.4874 21.3692 43.6243 21.3692 43.6928V43.9668C21.3692 43.9668 21.3692 44.1037 21.2322 44.1037H20.9583C20.8898 44.1037 20.7528 44.1037 20.7528 43.9668V43.8298C20.7528 43.5559 20.7528 43.2134 20.6844 42.9395C20.6844 42.5971 20.6844 42.3231 20.6159 41.9807C20.6159 41.9807 20.6159 41.8438 20.5474 41.8438H20.4104C20.3419 41.8438 20.2735 41.9807 20.205 42.0492C20.1365 42.1862 20.068 42.1862 20.205 42.2547C20.2735 42.2547 20.3419 42.3916 20.3419 42.5286V43.2134C20.3419 43.3047 20.2963 43.3732 20.205 43.4189C19.931 43.5559 19.7256 43.6928 19.7256 44.0352V44.3092C19.7256 44.4461 19.7941 44.5146 19.931 44.5146H20.4789C20.8898 44.5146 21.3692 44.5146 21.7801 44.3777C21.9171 44.3777 21.9856 44.2407 21.9856 44.1722V43.6928H21.7116ZM20.068 44.1722H19.9995C19.9995 44.1722 20.068 44.0352 20.1365 44.0352C20.205 44.0352 20.205 44.0352 20.205 44.1722C20.205 44.1722 20.205 44.3092 20.068 44.3092V44.1722Z" fill="#C5923A"/>
<path d="M13.2196 44.1725V43.6931C13.2196 43.2822 13.2196 42.8713 13.3566 42.4604C13.3566 42.3234 13.3566 42.2549 13.4936 42.1864C13.562 42.1864 13.562 42.1864 13.4936 42.0495C13.3566 41.9125 13.2881 41.844 13.1511 41.707H13.0142V41.844C13.0142 42.1179 13.0142 42.3234 12.9457 42.5973C12.9457 42.8713 12.8772 43.2137 12.8087 43.5561C12.8087 43.7616 12.8087 43.967 12.7402 44.1725V44.3094C12.7402 44.3094 12.8772 44.4464 13.0142 44.4464C13.1511 44.4464 13.1511 44.4464 13.1511 44.3094V44.1725H13.2196Z" fill="#C5923A"/>
<path d="M22.4648 43.145C22.3963 43.0081 22.3278 43.0081 22.2593 43.145C22.1908 43.282 22.1223 43.419 22.0538 43.5559V43.7614H22.1908C22.3963 43.8984 22.4648 44.2408 22.3278 44.4462C22.1908 44.6517 22.0539 44.7887 21.8484 44.8571H21.7114C21.7114 44.8571 21.7343 44.8571 21.7799 44.8571H21.9854C22.1908 44.8571 22.3278 44.8571 22.4648 44.7202C22.6017 44.7202 22.7387 44.5147 22.8072 44.3093C22.8757 44.0353 22.8072 43.7614 22.8072 43.4874C22.7387 43.282 22.6017 43.0765 22.4648 42.8711V43.0765V43.145Z" fill="#C5923A"/>
<path d="M28.8339 43.3506C28.6969 43.3506 28.6284 43.4876 28.6284 43.556C28.6284 43.6245 28.6969 43.7615 28.8339 43.7615C28.9708 43.7615 29.0393 43.6245 29.0393 43.556C29.0393 43.4876 28.9708 43.3506 28.8339 43.3506Z" fill="#C5923A"/>
<path d="M19.5199 42.5286C19.6569 42.5286 19.7254 42.5286 19.7254 42.3231C19.7254 42.1177 19.6569 42.1177 19.5199 42.1177C19.3829 42.1177 19.3145 42.1177 19.3145 42.3231C19.3145 42.5286 19.3829 42.5286 19.5199 42.5286Z" fill="#C5923A"/>
<path d="M19.7947 42.9393C19.7947 42.8024 19.7262 42.7339 19.5892 42.7339C19.4523 42.7339 19.3838 42.8709 19.3838 42.9393C19.3838 43.0078 19.4523 43.1448 19.5892 43.1448C19.7262 43.1448 19.7947 43.1448 19.7947 42.9393Z" fill="#C5923A"/>
<path d="M20.89 44.7202C20.7531 44.7202 20.6846 44.8572 20.6846 44.9257C20.6846 44.9942 20.7531 45.1311 20.89 45.1311C21.027 45.1311 21.0955 44.9942 21.0955 44.9257C21.0955 44.8572 21.027 44.7202 20.89 44.7202Z" fill="#C5923A"/>
<path d="M20.2733 44.7202C20.1364 44.7202 20.0679 44.8572 20.0679 44.9257C20.0679 44.9942 20.1364 45.1311 20.2733 45.1311C20.4103 45.1311 20.4788 44.9942 20.4788 44.9257C20.4788 44.8572 20.4103 44.7202 20.2733 44.7202Z" fill="#C5923A"/>
<path d="M5.82349 40.9534C5.96046 40.9534 6.09743 40.9534 6.09743 40.8164C6.09743 40.6794 6.09742 40.5425 5.96046 40.5425C5.82349 40.5425 5.68652 40.5425 5.68652 40.6794C5.68652 40.8164 5.68652 40.9534 5.82349 40.9534Z" fill="#C5923A"/>
<path d="M5.61743 41.5012C5.7544 41.5012 5.89138 41.5012 5.89138 41.3643C5.89138 41.2273 5.89138 41.0903 5.75441 41.0903C5.61744 41.0903 5.48047 41.0903 5.48047 41.2273C5.48047 41.3643 5.48047 41.5012 5.61743 41.5012Z" fill="#C5923A"/>
<path d="M5.89211 43.145C5.75514 43.145 5.61816 43.145 5.61816 43.282C5.61816 43.419 5.61817 43.5559 5.75514 43.5559C5.89211 43.5559 6.02907 43.5559 6.02907 43.419C6.02907 43.282 6.02908 43.145 5.89211 43.145Z" fill="#C5923A"/>
<path d="M6.50782 43.3506C6.37085 43.3506 6.23389 43.3506 6.23389 43.4876C6.23389 43.6245 6.23388 43.7615 6.37085 43.7615C6.50782 43.7615 6.64479 43.7615 6.64479 43.6245C6.64479 43.4876 6.64479 43.3506 6.50782 43.3506Z" fill="#C5923A"/>
<path d="M7.60353 43.6245C7.46656 43.6245 7.32959 43.6245 7.32959 43.7615C7.32959 43.8984 7.3296 44.0354 7.46657 44.0354C7.60353 44.0354 7.7405 44.0354 7.7405 43.8984C7.7405 43.7615 7.7405 43.6245 7.60353 43.6245Z" fill="#C5923A"/>
</svg>
