<svg width="193" height="144" viewBox="0 0 193 144" fill="none" xmlns="http://www.w3.org/2000/svg">
<path d="M192.999 126.376H0V126.473H192.999V126.376Z" fill="#EBEBEB"/>
<path d="M173.66 132.587H160.876V132.683H173.66V132.587Z" fill="#EBEBEB"/>
<path d="M156.017 132.587H128.685V132.683H156.017V132.587Z" fill="#EBEBEB"/>
<path d="M113.61 129.005H106.203V129.101H113.61V129.005Z" fill="#EBEBEB"/>
<path d="M33.4849 129.653H20.249V129.75H33.4849V129.653Z" fill="#EBEBEB"/>
<path d="M60.9879 129.653H36.9209V129.75H60.9879V129.653Z" fill="#EBEBEB"/>
<path d="M86.9029 131.282H72.6943V131.379H86.9029V131.282Z" fill="#EBEBEB"/>
<path d="M91.4817 109.16H16.9492C16.3653 109.159 15.8057 108.927 15.3932 108.514C14.9807 108.1 14.749 107.54 14.749 106.956V2.18475C14.7541 1.60422 14.988 1.04914 15.4 0.64007C15.8119 0.231004 16.3687 0.000994482 16.9492 0H91.4817C92.0663 0 92.6269 0.232212 93.0402 0.645552C93.4536 1.05889 93.6858 1.6195 93.6858 2.20405V106.956C93.6858 107.541 93.4536 108.102 93.0402 108.515C92.6269 108.928 92.0663 109.16 91.4817 109.16ZM16.9492 0.0772C16.3909 0.0782226 15.8559 0.300718 15.4614 0.69585C15.067 1.09098 14.8455 1.62646 14.8455 2.18475V106.956C14.8455 107.515 15.067 108.05 15.4614 108.445C15.8559 108.84 16.3909 109.063 16.9492 109.064H91.4817C92.0404 109.063 92.5758 108.841 92.9709 108.446C93.3659 108.05 93.5883 107.515 93.5893 106.956V2.18475C93.5883 1.62611 93.3659 1.09064 92.9709 0.695615C92.5758 0.300593 92.0404 0.0782204 91.4817 0.0772H16.9492Z" fill="#EBEBEB"/>
<path d="M174.977 109.16H100.44C99.8561 109.159 99.2961 108.927 98.883 108.514C98.4699 108.101 98.2373 107.541 98.2363 106.956V2.18475C98.2424 1.60387 98.4772 1.04879 98.8898 0.639829C99.3023 0.230869 99.8595 0.000983637 100.44 0H174.977C175.557 0.00200893 176.112 0.232467 176.523 0.641425C176.935 1.05038 177.168 1.60489 177.173 2.18475V106.956C177.173 107.54 176.942 108.099 176.53 108.512C176.119 108.925 175.56 109.158 174.977 109.16ZM100.44 0.0772C99.8817 0.0782204 99.3463 0.300593 98.9512 0.695615C98.5562 1.09064 98.3338 1.62611 98.3328 2.18475V106.956C98.3338 107.515 98.5562 108.05 98.9512 108.446C99.3463 108.841 99.8817 109.063 100.44 109.064H174.977C175.535 109.063 176.071 108.841 176.466 108.446C176.861 108.05 177.083 107.515 177.084 106.956V2.18475C177.083 1.62611 176.861 1.09064 176.466 0.695615C176.071 0.300593 175.535 0.0782204 174.977 0.0772H100.44Z" fill="#EBEBEB"/>
<path d="M29.2723 53.3528L81.6523 53.3528V7.97091L29.2723 7.97091L29.2723 53.3528Z" fill="#E6E6E6"/>
<path d="M28.1034 53.3528L80.4834 53.3528V7.97091L28.1034 7.97091L28.1034 53.3528Z" fill="#F5F5F5"/>
<path d="M78.3965 51.7315V9.59204L30.1968 9.59204V51.7315H78.3965Z" fill="#FAFAFA"/>
<path d="M59.0652 51.7315L67.8004 9.59204H49.5272L40.7959 51.7315H59.0652Z" fill="white"/>
<path d="M31.0762 51.7353L31.0762 9.59583H30.1961L30.1961 51.7353H31.0762Z" fill="#E6E6E6"/>
<path d="M28.9684 44.1775L79.6191 44.1775V42.0005L28.9684 42.0005V44.1775Z" fill="#F5F5F5"/>
<path d="M79.2223 124.079H87.5869V87.807H79.2223V124.079Z" fill="#F0F0F0"/>
<path d="M24.6 126.376L85.9854 126.376V124.079L24.6 124.079V126.376Z" fill="#F0F0F0"/>
<path d="M79.2225 87.8032H22.9902V124.075H79.2225V87.8032Z" fill="#F5F5F5"/>
<path d="M75.9371 92.2692H26.2783V104.166H75.9371V92.2692Z" fill="#F0F0F0"/>
<path d="M75.9371 107.717H26.2783V119.613H75.9371V107.717Z" fill="#F0F0F0"/>
<path d="M37.7236 99.0319H64.4927C64.7083 99.0309 64.9149 98.9447 65.0674 98.7922C65.22 98.6397 65.3061 98.4331 65.3071 98.2174C65.3061 98.0014 65.2201 97.7944 65.0677 97.6413C64.9153 97.4881 64.7087 97.4011 64.4927 97.3991H37.7236C37.5076 97.4011 37.301 97.4881 37.1486 97.6413C36.9962 97.7944 36.9102 98.0014 36.9092 98.2174C36.9102 98.4331 36.9963 98.6397 37.1489 98.7922C37.3014 98.9447 37.5079 99.0309 37.7236 99.0319Z" fill="#F5F5F5"/>
<path d="M37.7236 114.48H64.4927C64.7083 114.479 64.9149 114.392 65.0674 114.24C65.22 114.087 65.3061 113.881 65.3071 113.665C65.3071 113.449 65.2214 113.241 65.0688 113.088C64.9162 112.934 64.709 112.848 64.4927 112.847H37.7236C37.5073 112.848 37.3001 112.934 37.1475 113.088C36.9949 113.241 36.9092 113.449 36.9092 113.665C36.9102 113.881 36.9963 114.087 37.1489 114.24C37.3014 114.392 37.5079 114.479 37.7236 114.48Z" fill="#F5F5F5"/>
<path d="M166.605 31.6905C171.368 30.3781 172.997 21.7355 160.962 18.2075C163.618 26.9002 158.302 33.9679 166.605 31.6905Z" fill="#EBEBEB"/>
<path d="M167.658 35.4424C171.414 31.3855 167.862 22.2065 154.337 25.9584C161.987 32.6516 161.115 42.5177 167.658 35.4424Z" fill="#E0E0E0"/>
<path d="M163.952 36.4845C160.81 33.3733 165.311 22.5461 175.687 27.5641C169.808 33.1958 169.453 41.9078 163.952 36.4845Z" fill="#FAFAFA"/>
<path d="M160.819 42.5448H169.963L170.654 36.3572H160.132L160.819 42.5448Z" fill="#E6E6E6"/>
<path d="M160.027 37.4649H170.758C170.939 37.4649 171.113 37.393 171.241 37.2648C171.369 37.1367 171.441 36.9629 171.441 36.7817C171.441 36.6005 171.369 36.4267 171.241 36.2986C171.113 36.1705 170.939 36.0985 170.758 36.0985H160.027C159.846 36.0985 159.672 36.1705 159.544 36.2986C159.416 36.4267 159.344 36.6005 159.344 36.7817C159.344 36.9629 159.416 37.1367 159.544 37.2648C159.672 37.393 159.846 37.4649 160.027 37.4649Z" fill="#E6E6E6"/>
<path d="M83.8807 115.896V105.416H92.6081V94.9403H101.339V84.4604H110.067V73.9805H118.798V63.5045H127.526V53.0247H136.257V42.5448H144.988H192.999V126.376H83.8807H75.1494V115.896H83.8807Z" fill="#FAFAFA"/>
<path d="M131.892 115.896V105.416H140.623V94.9403H149.35V84.4604H158.082V73.9805H166.809V63.5045H175.54V53.0247H184.268V42.5448H192.999V53.0247V126.376H131.892H123.164V115.896H131.892Z" fill="#E0E0E0"/>
<path d="M123.165 115.896H74.6377V119.038H123.165V115.896Z" fill="#EBEBEB"/>
<path d="M131.896 105.416H83.3682V108.558H131.896V105.416Z" fill="#EBEBEB"/>
<path d="M140.623 94.9402H92.0957V98.0823H140.623V94.9402Z" fill="#EBEBEB"/>
<path d="M149.354 84.4604H100.826V87.6024H149.354V84.4604Z" fill="#EBEBEB"/>
<path d="M158.082 73.9805H109.555V77.1226H158.082V73.9805Z" fill="#EBEBEB"/>
<path d="M166.813 63.5045H118.285V66.6465H166.813V63.5045Z" fill="#EBEBEB"/>
<path d="M175.54 53.0247H127.013V56.1667H175.54V53.0247Z" fill="#EBEBEB"/>
<path d="M184.271 42.5448H135.743V45.6868H184.271V42.5448Z" fill="#EBEBEB"/>
<path d="M96.4985 143.808C137.832 143.808 171.34 141.851 171.34 139.438C171.34 137.025 137.832 135.069 96.4985 135.069C55.1648 135.069 21.6572 137.025 21.6572 139.438C21.6572 141.851 55.1648 143.808 96.4985 143.808Z" fill="#F5F5F5"/>
<path d="M129.194 40.0011C129.124 41.1591 128.989 42.2206 128.838 43.3207C128.688 44.4208 128.483 45.4977 128.252 46.5785C127.8 48.766 127.148 50.9071 126.302 52.9745L125.951 53.7465L125.866 53.9395L125.835 54.0399L125.774 54.1634C125.656 54.4057 125.506 54.6315 125.33 54.835C125.119 55.0718 124.868 55.2692 124.589 55.4179C124.314 55.5619 124.016 55.656 123.708 55.6958C123.236 55.7463 122.759 55.6963 122.307 55.5491C121.668 55.3308 121.064 55.0186 120.516 54.6227C120.037 54.2849 119.579 53.9175 119.146 53.5226C117.521 52.0162 116.059 50.3434 114.784 48.5317L116.062 47.447C116.834 48.1611 117.606 48.8829 118.378 49.5662C119.145 50.2492 119.947 50.8934 120.779 51.4961C121.17 51.7763 121.578 52.0341 121.998 52.2681C122.338 52.4739 122.704 52.6311 123.087 52.7352C123.218 52.7622 123.311 52.7352 123.268 52.7352C123.177 52.7453 123.092 52.7846 123.025 52.8471C123.002 52.8471 123.002 52.8471 123.025 52.8471L123.149 52.5268L123.419 51.8242C124.089 49.8901 124.611 47.9081 124.982 45.8953C125.187 44.884 125.33 43.8534 125.484 42.8305C125.638 41.8076 125.747 40.7538 125.835 39.7772L129.194 40.0011Z" fill="#FFC3BD"/>
<path d="M126.854 35.7511C125.415 36.1178 124.407 42.0391 124.407 42.0391L128.371 44.741C128.371 44.741 132.174 38.7696 131.073 37.187C129.915 35.5311 128.954 35.2185 126.854 35.7511Z" fill="#B9852C"/>
<path d="M126.854 35.7511C125.415 36.1178 124.407 42.0391 124.407 42.0391L128.371 44.741C128.371 44.741 132.174 38.7696 131.073 37.187C129.915 35.5311 128.954 35.2185 126.854 35.7511Z" fill="#B9852C"/>
<path opacity="0.4" d="M126.854 35.7511C125.415 36.1178 124.407 42.0391 124.407 42.0391L128.371 44.741C128.371 44.741 132.174 38.7696 131.073 37.187C129.915 35.5311 128.954 35.2185 126.854 35.7511Z" fill="black"/>
<path opacity="0.3" d="M126.981 37.0753L125.877 43.0389L128.104 44.5521L126.981 37.0753Z" fill="black"/>
<path d="M116.127 47.2038L114.255 44.2239L113.186 47.6091C113.186 47.6091 114.73 49.2303 116.131 48.8443L116.127 47.2038Z" fill="#FFC3BD"/>
<path d="M111.476 43.2394L110.735 46.119L113.171 47.6089L114.24 44.2237L111.476 43.2394Z" fill="#FFC3BD"/>
<path d="M134.635 135.389H131.146L130.91 127.306H134.403L134.635 135.389Z" fill="#FFC3BD"/>
<path d="M165.434 119.177L162.775 121.439L156.688 116.004L159.347 113.746L165.434 119.177Z" fill="#FFC3BD"/>
<path d="M162.046 121.169L164.628 118.212C164.672 118.161 164.733 118.128 164.8 118.119C164.867 118.109 164.935 118.125 164.991 118.162L167.62 119.864C167.684 119.909 167.739 119.967 167.78 120.035C167.82 120.103 167.846 120.178 167.856 120.257C167.865 120.335 167.858 120.414 167.835 120.49C167.811 120.565 167.772 120.635 167.72 120.694C166.801 121.709 166.307 122.153 165.172 123.45C164.478 124.249 163.54 125.492 162.575 126.592C161.61 127.692 160.467 126.804 160.772 126.256C162.127 123.809 161.803 122.952 161.826 121.748C161.829 121.535 161.907 121.33 162.046 121.169Z" fill="#263238"/>
<path d="M131.027 134.988H134.948C135.016 134.987 135.081 135.011 135.133 135.055C135.184 135.099 135.217 135.16 135.226 135.227L135.674 138.315C135.687 138.396 135.681 138.48 135.658 138.559C135.634 138.638 135.594 138.711 135.539 138.773C135.484 138.834 135.416 138.883 135.34 138.915C135.264 138.948 135.182 138.963 135.099 138.959C133.733 138.936 133.073 138.855 131.347 138.855C130.286 138.855 128.093 138.967 126.626 138.967C125.16 138.967 125.082 137.516 125.696 137.388C128.429 136.798 129.506 135.987 130.428 135.211C130.594 135.067 130.807 134.988 131.027 134.988Z" fill="#263238"/>
<path opacity="0.2" d="M130.915 127.31L131.035 131.475H134.524L134.404 127.31H130.915Z" fill="black"/>
<path opacity="0.2" d="M159.351 113.746L156.688 116.004L159.83 118.806L162.489 116.545L159.351 113.746Z" fill="black"/>
<path d="M126.854 35.7513C126.854 35.7513 125.19 36.338 128.521 56.8191H142.695C142.46 51.0484 142.452 47.4895 145.208 35.6509C143.224 35.2418 141.213 34.976 139.19 34.8558C137.047 34.703 134.895 34.703 132.752 34.8558C129.988 35.1259 126.854 35.7513 126.854 35.7513Z" fill="#B9852C"/>
<path opacity="0.4" d="M126.854 35.7513C126.854 35.7513 125.19 36.338 128.521 56.8191H142.695C142.46 51.0484 142.452 47.4895 145.208 35.6509C143.224 35.2418 141.213 34.976 139.19 34.8558C137.047 34.703 134.895 34.703 132.752 34.8558C129.988 35.1259 126.854 35.7513 126.854 35.7513Z" fill="black"/>
<path d="M139.191 34.8558C137.048 34.703 134.896 34.703 132.753 34.8558C132.405 34.8866 132.05 34.9252 131.699 34.9677C131.553 35.1871 131.46 35.4369 131.427 35.6979C131.394 35.9589 131.421 36.2241 131.506 36.4731C131.957 37.5963 133.586 37.7276 134.775 37.7276C139.164 37.7276 139.905 35.1646 139.936 35.0565L139.978 34.9021C139.731 34.8866 139.454 34.8673 139.191 34.8558Z" fill="white"/>
<path d="M138.574 27.6105C138.165 29.6794 137.763 33.4738 139.211 34.8557C139.211 34.8557 138.643 36.9594 134.795 36.9594C130.549 36.9594 132.772 34.8595 132.772 34.8595C135.088 34.3076 135.023 32.5937 134.621 30.9995L138.574 27.6105Z" fill="#FFC3BD"/>
<path opacity="0.2" d="M136.941 28.9846L134.602 30.9802C134.702 31.3596 134.769 31.7471 134.802 32.1382C135.682 32.0108 136.894 31.042 136.991 30.1195C137.045 29.7414 137.028 29.3565 136.941 28.9846Z" fill="black"/>
<path d="M136.146 16.3471C135.787 15.1312 135.486 13.2167 137.647 12.3521C136.802 11.3176 136.597 9.37215 137.647 8.21801C138.697 7.06387 140.272 7.48847 140.272 7.48847C140.272 7.48847 140.735 4.66682 144.167 5.17248C147.598 5.67814 146.07 7.93623 146.07 7.93623C146.07 7.93623 150.752 7.00983 151.064 11.4102C151.377 15.8106 148.691 15.2702 148.691 15.2702C148.691 15.2702 150.779 17.0226 149.621 18.9488C148.463 20.8749 145.788 20.211 145.788 20.211C145.788 20.211 144.529 23.6155 141.565 21.6778C138.601 19.7401 136.146 16.3471 136.146 16.3471Z" fill="#263238"/>
<path d="M129.194 18.914C128.036 20.4117 128.545 22.1062 129.58 22.774C132.069 24.3643 135.671 17.6942 134.733 16.8952C133.795 16.0962 130.352 17.4125 129.194 18.914Z" fill="#263238"/>
<path d="M139.65 15.3472C138.013 14.6872 136.353 15.3781 135.836 16.374C134.574 18.8019 140.306 23.1753 141.966 20.1413C142.95 18.3387 141.337 16.0266 139.65 15.3472Z" fill="#B9852C"/>
<path d="M138.958 22.7739C139.078 26.2479 139.201 27.6993 137.63 29.6331C135.272 32.5397 130.991 31.9298 129.841 28.5716C128.806 25.5493 128.787 20.3962 132.025 18.7055C132.737 18.3289 133.534 18.1406 134.339 18.1584C135.144 18.1762 135.931 18.3995 136.626 18.8071C137.32 19.2147 137.899 19.7931 138.307 20.4874C138.716 21.1817 138.94 21.9688 138.958 22.7739Z" fill="#FFC3BD"/>
<path d="M138.439 24.592C136.895 24.0168 136.509 22.2142 136.756 21.504C135.984 21.4731 134.297 21.1952 133.668 20.2379C132.464 21.0099 129.92 21.7819 129.646 20.4965C129.372 19.2111 133.209 15.907 136.111 15.6522C139.562 15.3512 142.967 18.7402 142.09 21.9865C141.214 25.2327 138.439 24.592 138.439 24.592Z" fill="#263238"/>
<path d="M128.538 56.8191C128.538 56.8191 125.786 83.7039 126.013 94.3498C126.253 105.42 130.31 130.668 130.31 130.668H135.026C135.026 130.668 134.281 106.065 134.698 95.1951C135.154 83.3411 138.917 56.8191 138.917 56.8191H128.538Z" fill="#263238"/>
<path d="M135.42 130.838H129.885L129.476 129.074L135.679 128.858L135.42 130.838Z" fill="#B9852C"/>
<path opacity="0.2" d="M134.636 63.5083C131.162 70.5103 133.937 83.2869 135.169 88.0424C135.798 80.9014 136.863 72.174 137.693 65.7664C137.168 62.1457 136.257 60.2775 134.636 63.5083Z" fill="black"/>
<path d="M132.267 56.819C132.267 56.819 135.478 84.7692 137.902 93.7436C140.782 104.397 158.665 118.737 158.665 118.737L162.293 115.649C162.293 115.649 149.332 100.07 147.128 94.4577C142.43 82.4918 146.452 64.6278 142.696 56.8113L132.267 56.819Z" fill="#263238"/>
<path d="M162.871 115.491L158.37 119.312L156.688 118.305L161.779 113.568L162.871 115.491Z" fill="#B9852C"/>
<path d="M133.823 24.2253C133.85 24.507 133.722 24.7464 133.541 24.7657C133.359 24.785 133.186 24.5688 133.155 24.2909C133.124 24.013 133.255 23.7659 133.441 23.7505C133.626 23.735 133.796 23.9319 133.823 24.2253Z" fill="#263238"/>
<path d="M130.657 24.5302C130.684 24.8081 130.556 25.0512 130.371 25.0705C130.186 25.0898 130.02 24.8737 129.985 24.5919C129.95 24.3101 130.085 24.0708 130.267 24.0554C130.448 24.0399 130.63 24.2484 130.657 24.5302Z" fill="#263238"/>
<path d="M130.355 24.0631L129.664 23.9319C129.664 23.9319 130.081 24.426 130.355 24.0631Z" fill="#263238"/>
<path d="M131.537 24.9316C131.349 25.5944 131.071 26.2282 130.711 26.8153C130.864 26.9034 131.034 26.9573 131.21 26.9733C131.386 26.9893 131.563 26.967 131.73 26.908L131.537 24.9316Z" fill="#ED847E"/>
<path d="M133.286 27.8304C133.133 27.8723 132.977 27.9007 132.819 27.9153C132.808 27.9164 132.797 27.9153 132.787 27.9122C132.777 27.9091 132.767 27.904 132.759 27.8972C132.751 27.8903 132.744 27.8819 132.739 27.8725C132.734 27.863 132.731 27.8526 132.73 27.842C132.728 27.82 132.734 27.7981 132.748 27.7808C132.762 27.7635 132.781 27.7522 132.803 27.7493C133.153 27.7236 133.491 27.6163 133.791 27.436C134.092 27.2556 134.346 27.0073 134.533 26.711C134.537 26.7008 134.544 26.6916 134.552 26.6842C134.56 26.6768 134.57 26.6712 134.581 26.6679C134.591 26.6646 134.602 26.6636 134.613 26.6651C134.624 26.6665 134.635 26.6703 134.644 26.6763C134.664 26.6869 134.678 26.7044 134.684 26.7253C134.691 26.7461 134.689 26.7687 134.679 26.7882C134.368 27.3035 133.868 27.6773 133.286 27.8304Z" fill="#263238"/>
<path d="M139.77 25.1709C139.686 25.8352 139.341 26.4389 138.813 26.85C138.107 27.3904 137.427 26.85 137.346 26.0047C137.277 25.2327 137.555 24.0747 138.396 23.8508C138.58 23.8134 138.77 23.8211 138.95 23.8733C139.13 23.9255 139.294 24.0206 139.429 24.1504C139.565 24.2803 139.666 24.4409 139.726 24.6187C139.785 24.7964 139.8 24.9859 139.77 25.1709Z" fill="#FFC3BD"/>
<path d="M134.162 22.2412C134.14 22.2467 134.118 22.2478 134.096 22.2445C134.074 22.2411 134.053 22.2335 134.034 22.2219C133.859 22.1103 133.66 22.0415 133.454 22.0214C133.247 22.0013 133.039 22.0303 132.845 22.1061C132.805 22.124 132.76 22.1259 132.718 22.1116C132.677 22.0973 132.642 22.0677 132.621 22.0289C132.603 21.9895 132.6 21.9443 132.615 21.9031C132.629 21.8619 132.659 21.8281 132.699 21.8089C132.942 21.7085 133.205 21.6681 133.467 21.6909C133.729 21.7137 133.982 21.7992 134.204 21.9402C134.222 21.9512 134.238 21.9658 134.251 21.9831C134.264 22.0004 134.273 22.02 134.278 22.0408C134.283 22.0617 134.284 22.0833 134.28 22.1044C134.277 22.1256 134.269 22.1458 134.258 22.164C134.237 22.201 134.202 22.2285 134.162 22.2412Z" fill="#263238"/>
<path d="M129.104 23.2025C129.064 23.2176 129.02 23.2176 128.981 23.2025C128.943 23.1806 128.916 23.1452 128.903 23.1036C128.891 23.0619 128.895 23.0172 128.915 22.9786C129.033 22.7436 129.206 22.5406 129.419 22.3867C129.632 22.2328 129.879 22.1326 130.139 22.0946C130.16 22.0925 130.182 22.0948 130.203 22.1012C130.224 22.1077 130.243 22.1183 130.259 22.1323C130.276 22.1464 130.289 22.1636 130.299 22.183C130.309 22.2024 130.315 22.2235 130.316 22.2452C130.319 22.2886 130.305 22.3316 130.277 22.3648C130.249 22.398 130.209 22.4188 130.166 22.4227C129.961 22.4572 129.767 22.5395 129.6 22.6629C129.433 22.7863 129.298 22.9473 129.205 23.133C129.194 23.1509 129.179 23.1664 129.162 23.1783C129.144 23.1903 129.125 23.1985 129.104 23.2025Z" fill="#263238"/>
<path d="M146.656 39.4144C147.443 41.3398 148.122 43.3076 148.69 45.3086C149.292 47.327 149.721 49.3932 149.972 51.4846C150.037 52.0172 150.057 52.5769 150.08 53.1289V53.4416C150.08 53.5535 150.061 53.6693 150.045 53.7697C150.013 53.9626 149.969 54.1533 149.914 54.3409C149.813 54.662 149.684 54.9733 149.528 55.2712C148.993 56.2608 148.337 57.1801 147.575 58.0079C146.166 59.5557 144.615 60.9682 142.943 62.2269L141.827 60.9878C143.113 59.4863 144.409 57.9462 145.51 56.3559C146.041 55.6342 146.494 54.8578 146.861 54.0399C146.923 53.8816 146.975 53.7191 147.015 53.5535C147.025 53.4974 147.032 53.4407 147.034 53.3837C147.036 53.367 147.036 53.3501 147.034 53.3335V53.2794C146.984 52.824 146.949 52.3685 146.864 51.9014C146.532 49.9946 146.069 48.1129 145.479 46.2697C144.888 44.4015 144.228 42.5062 143.549 40.6997L146.656 39.4144Z" fill="#FFC3BD"/>
<path d="M145.208 35.6508C146.629 36.0832 148.335 40.9738 148.335 40.9738L142.819 44.911C142.819 44.911 140.808 40.831 141.406 38.9936C142.047 37.0829 143.591 35.1568 145.208 35.6508Z" fill="#B9852C"/>
<path opacity="0.4" d="M145.208 35.6508C146.629 36.0832 148.335 40.9738 148.335 40.9738L142.819 44.911C142.819 44.911 140.808 40.831 141.406 38.9936C142.047 37.0829 143.591 35.1568 145.208 35.6508Z" fill="black"/>
<path d="M161.091 122.852C161.019 122.85 160.949 122.832 160.886 122.799C160.822 122.766 160.767 122.72 160.724 122.663C160.689 122.626 160.664 122.582 160.652 122.533C160.64 122.484 160.641 122.433 160.655 122.385C160.786 121.96 161.998 121.613 162.137 121.574C162.152 121.569 162.169 121.568 162.184 121.573C162.199 121.578 162.213 121.588 162.222 121.601C162.23 121.614 162.235 121.63 162.235 121.645C162.235 121.661 162.23 121.677 162.222 121.69C162.006 122.103 161.577 122.798 161.137 122.848L161.091 122.852ZM161.986 121.79C161.508 121.945 160.882 122.211 160.828 122.435C160.823 122.456 160.823 122.478 160.829 122.5C160.835 122.521 160.847 122.54 160.863 122.555C160.894 122.599 160.936 122.634 160.985 122.657C161.033 122.68 161.087 122.69 161.141 122.686C161.365 122.659 161.678 122.327 161.986 121.79Z" fill="#B9852C"/>
<path d="M161.607 121.806C161.246 121.843 160.884 121.74 160.596 121.52C160.555 121.469 160.533 121.406 160.533 121.341C160.533 121.275 160.555 121.212 160.596 121.161C160.63 121.108 160.676 121.062 160.73 121.029C160.784 120.996 160.845 120.975 160.908 120.968C161.41 120.906 162.17 121.563 162.201 121.59C162.213 121.599 162.221 121.611 162.226 121.624C162.231 121.638 162.232 121.653 162.228 121.667C162.227 121.682 162.221 121.696 162.211 121.708C162.202 121.719 162.189 121.728 162.174 121.732C161.99 121.785 161.799 121.81 161.607 121.806ZM160.993 121.13H160.939C160.9 121.135 160.861 121.148 160.827 121.168C160.793 121.189 160.764 121.217 160.742 121.25C160.684 121.339 160.704 121.385 160.742 121.416C160.893 121.613 161.58 121.686 161.997 121.609C161.711 121.362 161.365 121.197 160.993 121.13Z" fill="#B9852C"/>
<path d="M129.714 135.597C129.416 135.625 129.118 135.548 128.869 135.381C128.816 135.333 128.775 135.273 128.749 135.206C128.723 135.139 128.712 135.067 128.719 134.995C128.722 134.949 128.737 134.905 128.762 134.867C128.786 134.828 128.821 134.797 128.861 134.775C129.29 134.54 130.679 135.25 130.838 135.335C130.852 135.343 130.864 135.356 130.872 135.371C130.879 135.386 130.882 135.403 130.88 135.42C130.878 135.437 130.87 135.453 130.859 135.465C130.847 135.478 130.831 135.486 130.815 135.489C130.452 135.559 130.084 135.595 129.714 135.597ZM129.093 134.876C129.04 134.872 128.986 134.883 128.939 134.906C128.922 134.915 128.908 134.927 128.899 134.943C128.889 134.959 128.884 134.977 128.885 134.995C128.878 135.044 128.884 135.093 128.9 135.138C128.917 135.184 128.945 135.225 128.981 135.258C129.193 135.451 129.753 135.482 130.525 135.354C130.079 135.114 129.594 134.952 129.093 134.876Z" fill="#B9852C"/>
<path d="M130.799 135.486H130.764C130.347 135.296 129.525 134.544 129.606 134.15C129.606 134.057 129.687 133.938 129.915 133.915C129.997 133.906 130.08 133.914 130.159 133.939C130.238 133.963 130.311 134.004 130.374 134.057C130.81 134.424 130.892 135.362 130.895 135.405C130.897 135.419 130.894 135.433 130.888 135.446C130.882 135.459 130.872 135.47 130.861 135.478C130.852 135.484 130.841 135.487 130.831 135.489C130.82 135.49 130.809 135.489 130.799 135.486ZM129.965 134.069H129.919C129.764 134.069 129.757 134.146 129.753 134.166C129.714 134.401 130.274 134.995 130.699 135.25C130.664 134.854 130.508 134.477 130.251 134.173C130.173 134.101 130.071 134.06 129.965 134.057V134.069Z" fill="#B9852C"/>
<path d="M142.907 55.9698L143.27 57.2398C143.32 57.3363 143.204 57.4366 143.039 57.4366H128.452C128.324 57.4366 128.216 57.3749 128.208 57.2938L128.081 56.0277C128.081 55.9389 128.181 55.8656 128.324 55.8656H142.68C142.723 55.8619 142.767 55.8695 142.807 55.8878C142.847 55.9061 142.881 55.9343 142.907 55.9698Z" fill="#B9852C"/>
<path opacity="0.3" d="M142.907 55.9698L143.27 57.2398C143.32 57.3363 143.204 57.4366 143.039 57.4366H128.452C128.324 57.4366 128.216 57.3749 128.208 57.2938L128.081 56.0277C128.081 55.9389 128.181 55.8656 128.324 55.8656H142.68C142.723 55.8619 142.767 55.8695 142.807 55.8878C142.847 55.9061 142.881 55.9343 142.907 55.9698Z" fill="white"/>
<path d="M140.982 57.5909H141.368C141.441 57.5909 141.499 57.5523 141.495 57.5021L141.314 55.8539C141.314 55.8076 141.245 55.7651 141.167 55.7651H140.781C140.704 55.7651 140.646 55.8076 140.654 55.8539L140.832 57.5021C140.839 57.5523 140.889 57.5909 140.982 57.5909Z" fill="#263238"/>
<path d="M129.533 57.5909H129.919C129.997 57.5909 130.054 57.5523 130.051 57.5021L129.869 55.8539C129.869 55.8076 129.796 55.7651 129.722 55.7651H129.336C129.259 55.7651 129.201 55.8076 129.205 55.8539L129.387 57.5021C129.391 57.5523 129.456 57.5909 129.533 57.5909Z" fill="#263238"/>
<path d="M135.258 57.5909H135.644C135.721 57.5909 135.779 57.5523 135.775 57.5021L135.593 55.8539C135.593 55.8076 135.524 55.7651 135.447 55.7651H135.061C134.983 55.7651 134.926 55.8076 134.933 55.8539L135.099 57.5137C135.099 57.5523 135.18 57.5909 135.258 57.5909Z" fill="#263238"/>
<path d="M133.524 23.7582L132.833 23.627C132.833 23.627 133.227 24.121 133.524 23.7582Z" fill="#263238"/>
<path opacity="0.2" d="M120.748 72.9114C114.208 75.452 107.062 75.9964 100.213 74.4757C93.364 72.955 87.1198 69.4375 82.2698 64.368C77.4198 59.2985 74.182 52.9048 72.9658 45.9952C71.7496 39.0856 72.6096 31.9705 75.437 25.5497C78.2645 19.1288 82.9324 13.6906 88.8505 9.92261C94.7686 6.15465 101.671 4.22619 108.685 4.38109C115.699 4.53599 122.51 6.76729 128.256 10.7929C134.002 14.8184 138.425 20.4574 140.967 26.9968C142.654 31.3391 143.47 35.9714 143.368 40.6291C143.265 45.2868 142.246 49.8787 140.368 54.1424C138.491 58.4062 135.792 62.2583 132.425 65.4787C129.059 68.6991 125.091 71.2248 120.748 72.9114Z" fill="#B9852C"/>
<path opacity="0.1" d="M114.328 4.96001L86.505 68.148C86.0766 67.8238 85.652 67.4879 85.2351 67.1483C82.546 64.9237 80.2041 62.3099 78.2871 59.3936L102.319 4.81333C106.301 4.17206 110.363 4.22168 114.328 4.96001Z" fill="white"/>
<path opacity="0.1" d="M134.107 15.9224L107.948 75.3315C102.514 75.3373 97.1523 74.0932 92.2764 71.6954L120.84 6.82056C125.901 8.7996 130.439 11.9135 134.107 15.9224Z" fill="white"/>
<path d="M78.6964 15.9495C83.4232 10.1738 89.7566 5.92951 96.8955 3.75327C104.034 1.57703 111.658 1.56661 118.803 3.72332C125.948 5.88003 132.293 10.107 137.036 15.8697C141.778 21.6324 144.706 28.6721 145.447 36.0984C146.189 43.5248 144.712 51.0043 141.203 57.5912C137.694 64.1781 132.31 69.5764 125.733 73.1037C119.156 76.6309 111.68 78.1285 104.252 77.4072C96.8235 76.6859 89.7758 73.7781 84.0001 69.0513C76.2558 62.7123 71.3466 53.5569 70.352 43.5987C69.3574 33.6404 72.3589 23.6949 78.6964 15.9495ZM134.713 61.7907C139.051 56.487 141.72 50.0158 142.381 43.1955C143.042 36.3751 141.666 29.5118 138.427 23.4735C135.188 17.4352 130.231 12.493 124.183 9.27188C118.134 6.05076 111.267 4.69537 104.449 5.3771C97.6304 6.05883 91.1673 8.74705 85.8767 13.1019C80.5861 17.4567 76.7056 23.2825 74.7259 29.8426C72.7462 36.4027 72.7562 43.4026 74.7547 49.9571C76.7531 56.5115 80.6502 62.3262 85.9532 66.6659C89.4748 69.5477 93.5295 71.7076 97.8859 73.0222C102.242 74.3369 106.815 74.7805 111.343 74.3278C115.871 73.8751 120.265 72.5349 124.275 70.3838C128.284 68.2326 131.831 65.3127 134.713 61.7907Z" fill="#B9852C"/>
<path d="M138.044 61.6594C141.762 63.8789 145.297 66.3184 148.771 68.8351C152.245 71.3518 155.63 73.9727 158.962 76.6631C162.293 79.3536 165.562 82.1212 168.716 85.0277C170.296 86.4791 171.84 87.969 173.348 89.4976C174.861 91.0416 176.347 92.5856 177.748 94.2608C178.072 94.6487 178.25 95.1372 178.253 95.6424C178.255 96.1476 178.082 96.6379 177.762 97.029C177.442 97.4201 176.996 97.6876 176.501 97.7854C176.005 97.8832 175.491 97.8053 175.046 97.565C173.116 96.5228 171.31 95.3725 169.507 94.1952C167.705 93.0179 165.944 91.7904 164.207 90.5282C160.733 88.0115 157.371 85.3597 154.079 82.623C150.786 79.8862 147.544 77.0877 144.39 74.1773C141.237 71.2669 138.145 68.287 135.234 65.0832C134.871 64.6869 134.662 64.1729 134.647 63.6355C134.632 63.098 134.811 62.5731 135.152 62.157C135.492 61.7409 135.972 61.4616 136.501 61.3702C137.031 61.2788 137.576 61.3815 138.037 61.6594H138.044Z" fill="#B9852C"/>
<path d="M142.197 60.6018L138.469 61.1692L141.136 63.5084C141.136 63.5084 143.244 62.7364 143.452 61.3082L142.197 60.6018Z" fill="#FFC3BD"/>
<path d="M136.455 63.3115L138.798 65.1488L141.658 63.2806L138.47 61.1769L136.455 63.3115Z" fill="#FFC3BD"/>
<path d="M118.826 67.3759C119.166 66.4461 119.781 65.6413 120.587 65.0674C121.394 64.4935 122.356 64.1773 123.346 64.1605H154.245C154.779 64.1405 155.311 64.238 155.803 64.446C156.295 64.654 156.736 64.9674 157.094 65.3643C157.451 65.7611 157.718 66.2316 157.874 66.7425C158.03 67.2535 158.072 67.7926 157.997 68.3216L150.015 135.296C149.845 136.436 149.276 137.479 148.408 138.238C147.54 138.997 146.431 139.422 145.278 139.438H47.2347C46.7026 139.458 46.1725 139.362 45.6818 139.155C45.191 138.948 44.7515 138.637 44.3942 138.242C44.0369 137.847 43.7705 137.379 43.6137 136.87C43.4569 136.361 43.4135 135.824 43.4867 135.296L50.1799 79.0253C50.3493 77.8852 50.9188 76.8424 51.7865 76.0836C52.6542 75.3248 53.7635 74.8994 54.9161 74.8836H108.269C110.581 74.8441 112.827 74.1058 114.711 72.7658C116.595 71.4258 118.03 69.5467 118.826 67.3759Z" fill="#B9852C"/>
<path d="M45.251 136.354H147.699L153.535 67.4224H51.0911L45.251 136.354Z" fill="#F0F0F0"/>
<path d="M45.251 136.354H147.699L151.922 67.4224H51.0911L45.251 136.354Z" fill="#E0E0E0"/>
<path d="M45.251 136.354H147.699L151.219 65.2337H48.7751L45.251 136.354Z" fill="#F0F0F0"/>
<path d="M45.251 136.354H147.699L149.092 65.2337H48.7751L45.251 136.354Z" fill="#E0E0E0"/>
<path d="M45.251 136.354H147.699L148.309 63.3038H45.8647L45.251 136.354Z" fill="#F0F0F0"/>
<path d="M45.2513 136.354H147.699L145.596 64.6855H43.8115L45.2513 136.354Z" fill="#E0E0E0"/>
<path d="M45.2507 136.354H147.699L144.657 65.2337H42.2129L45.2507 136.354Z" fill="#F0F0F0"/>
<path d="M45.2496 136.354H147.698L142.853 66.3068H40.4092L45.2496 136.354Z" fill="#E0E0E0"/>
<path d="M45.2501 136.354H147.698L142.082 66.9051H39.6377L45.2501 136.354Z" fill="#F0F0F0"/>
<path d="M96.554 71.7262C96.5598 71.2783 96.6555 70.8362 96.8357 70.4261C97.0158 70.016 97.2766 69.6464 97.6025 69.3392C97.9285 69.032 98.3129 68.7935 98.7329 68.6379C99.1529 68.4823 99.5999 68.4128 100.047 68.4336H130.946C132.143 68.4795 133.29 68.9214 134.208 69.6899C135.126 70.4584 135.763 71.51 136.019 72.6796L148.228 135.211C148.683 137.554 147.155 139.457 144.812 139.457H46.7679C44.421 139.457 42.1359 137.554 41.692 135.211L31.6213 83.6612C31.1658 81.3182 32.6944 79.4152 35.0374 79.4152H88.394C93.026 79.4152 96.3958 76.2269 96.554 71.7262Z" fill="#B9852C"/>
<path opacity="0.2" d="M96.554 71.7262C96.5598 71.2783 96.6555 70.8362 96.8357 70.4261C97.0158 70.016 97.2766 69.6464 97.6025 69.3392C97.9285 69.032 98.3129 68.7935 98.7329 68.6379C99.1529 68.4823 99.5999 68.4128 100.047 68.4336H130.946C132.143 68.4795 133.29 68.9214 134.208 69.6899C135.126 70.4584 135.763 71.51 136.019 72.6796L148.228 135.211C148.683 137.554 147.155 139.457 144.812 139.457H46.7679C44.421 139.457 42.1359 137.554 41.692 135.211L31.6213 83.6612C31.1658 81.3182 32.6944 79.4152 35.0374 79.4152H88.394C93.026 79.4152 96.3958 76.2269 96.554 71.7262Z" fill="black"/>
</svg>
